<?xml version="1.0" encoding="utf-8"?>
<!-- Generator: Adobe Illustrator 16.0.0, SVG Export Plug-In . SVG Version: 6.00 Build 0)  -->
<!DOCTYPE svg PUBLIC "-//W3C//DTD SVG 1.1//EN" "http://www.w3.org/Graphics/SVG/1.1/DTD/svg11.dtd">
<svg version="1.1" xmlns="http://www.w3.org/2000/svg" xmlns:xlink="http://www.w3.org/1999/xlink" x="0px" y="0px" width="666px"
	 height="300.5px" viewBox="0 0 666 300.5" style="enable-background:new 0 0 666 300.5;" xml:space="preserve">
<g id="color_schema">
</g>
<g id="heart">
	<g>
		<path style="fill-rule:evenodd;clip-rule:evenodd;fill:#F5C3D3;" d="M0.2,130.9c0.3-2.4,0.6-4.8,1-7.1
			c3.4-19.7,13.2-35.4,29.2-47.2c13.2-9.8,28.2-15.6,44.4-18.1c19-2.9,37.4-0.1,55.4,6c1.9,0.7,3.9,1.4,5.9,2.1
			c2.1-3.3,4.2-6.5,6.3-9.8c5.1-8,10.2-15.9,16.7-22.9c8.9-9.7,18.8-18.1,30.5-24.1c10.1-5.2,20.8-8.4,32.2-9.2c0.3,0,0.7-0.2,1-0.2
			c4,0,8,0,12.1,0c2,0.3,4,0.5,6.1,0.8c21.1,2.8,37.7,13,49.9,30.4c0.4,0.5,0.5,1.3,0.4,1.9c-0.4,2.6-0.9,5.2-1.4,7.9
			c-2.2-3.1-4.2-6.1-6.5-9c-12.1-14.7-27.6-23.4-46.5-25.6c-14.4-1.7-28,1.4-41.1,7.5C175,24,159.6,39.6,148.3,59.5
			c-1.4,2.5-2.7,5.1-4,7.6c-0.7,1.3-1.4,2.5-2.2,3.7c-1.5,2.3-3.7,3.1-6.3,2.3c-3.9-1.1-7.8-2.5-11.7-3.7c-12.8-4-25.9-6.2-39.3-5.4
			c-20.5,1.2-39,7.7-54.7,21.2C16.5,96.7,8.7,111.5,6.9,129.3c-1.5,14.5,1.5,28.2,7.4,41.3c9.5,20.9,24.8,36.4,44.9,47.1
			c8.3,4.4,17.1,8.1,25.8,11.9c47.1,20.6,94.2,41.1,141.4,61.6c0.3,0.1,0.6,0.2,1,0.4c0.2-0.4,0.4-0.9,0.6-1.3
			c6.2-15.2,12.3-30.3,18.5-45.5c0.4-0.9,0.9-1.3,1.9-1.3c1.5,0.1,3,0,4.8,0c-0.2,0.5-0.3,1-0.5,1.4c-6.8,15.9-13.7,31.8-20.5,47.7
			c-0.9,2.1-1.3,4.4-1.9,6.7c-0.2,0-0.4,0-0.5,0c-2.1-1-4.2-2-6.3-2.9c-52-22.5-104-45.1-156-67.6c-14.2-6.2-27.2-14.3-38-25.5
			c-14.2-14.5-23.5-31.6-27.6-51.6c-0.6-2.9-0.8-5.9-1.2-8.9c0-0.3-0.2-0.7-0.2-1C0.2,138.2,0.2,134.6,0.2,130.9z"/>
	</g>
</g>
<g id="nayeli_saupe">
	<g>
		<path style="fill:#F2F2F2;" d="M145.1,95c0,5.2-3.3,17.9-9.8,38c-8.9,27-16.1,40.5-21.5,40.5c-6.9,0-11.6-6.6-14.3-19.8
			c-1.3-6.7-2.5-22.7-3.6-48.1c-3.5,12.1-8.4,30.4-14.5,54.8c-1.9,8-4.8,12-8.7,12c-5.6,0-9.1-3.9-10.6-11.7l-1.1-21
			c-0.6-8.2-0.6-15.6,0-22.4l0.8-10.3l-2.5-5.3c0.2-5,0.7-8.4,1.4-10.1c1.1-3,3.4-4.5,7-4.5c3.7,0,5.6,1.7,5.6,5
			c0,1.1-0.7,3.5-2,7.3c-1.1,3.5-1.7,6.5-1.7,8.9c0,5.6-0.1,10.6-0.3,15.1c-0.2,4.5-0.3,9.5-0.3,15.1c0,13.4,1.5,20.1,4.5,20.1
			c0.9,0,2.1-2.4,3.6-7.3c2.6-10.8,4.6-17.9,5.9-21.2c5.6-17.3,8.8-31.8,9.5-43.3c0.6-7.8,1.9-12.5,3.9-14
			c9.5,0.6,14.3,3.5,14.3,8.9c0-5.4-0.5-5-1.4,1.1c-0.4,3.4-0.9,8.3-1.7,14.8c-1.9,17.5-2.8,29.3-2.8,35.5c0,20.1,2.6,30.2,7.8,30.2
			c4.5,0,9.9-9.9,16.2-29.6c4.3-13.4,7.4-24.9,9.5-34.4c1.3-5.8,2.8-8.7,4.5-8.7C144.3,90.8,145.1,92.2,145.1,95z"/>
		<path style="fill:#F2F2F2;" d="M171.1,173.5c-5.5,0-10.1-5.4-13.6-16.3c-3.7,13.9-8.7,20.8-15,20.8c-8.8,0-13-10.9-12.5-32.6
			c0.3-5.8,2.2-15.5,5.6-29.1c4.3-15.5,8-23.2,11-23.2c6.6,0,10.7,1.7,12.5,5.1l4,8l7.8,2.7c-3.7,10.9-6.3,24.2-7.6,40
			c-0.3,3.4,0,7,0.9,10.7c1.2,5.2,3.1,7.8,5.6,7.8c5.1,0,12-18.3,20.8-55c0.9-3.4,1.9-5.1,3.1-5.1c1.2,0,1.8,1.1,1.8,3.4
			c0,5.5-2.8,16.8-8.3,33.8C180.9,163.9,175.5,173.5,171.1,173.5z M160.1,114.5l-2.7-3.6c-0.6-6.9-2.5-10.3-5.6-10.3
			c-2.4,0-4.6,3.6-6.7,10.7c-0.7,2.4-2.3,7.6-4.7,15.6c-2.4,9.1-3.6,20.3-3.6,33.8c0,2.5,0.5,4.9,1.6,7.2c1.3,2.8,3.1,4.2,5.1,4.2
			c2.8-1.6,5.8-7.4,8.9-17.2c2.7-8.5,4.3-15.1,4.9-19.9L160.1,114.5z"/>
		<path style="fill:#F2F2F2;" d="M169.9,168.2c2.7,0,6.5-7.5,11.4-22.6c3.4-10.6,6.5-21.6,9.2-33.1c0.9-3.4,1.9-5.1,3.1-5.1
			c1.2,0,1.8,1.1,1.8,3.4c0,4.5-2.9,15.8-8.7,34c-6.6,19.5-11.7,29.3-15.4,29.3c-3.4,0-5.1-0.7-5.1-2
			C166.1,170.5,167.4,169.2,169.9,168.2z M252.9,193.9c-6.3-1-10.7-1.6-13.2-1.6c-2.4,0-6.9,1.1-13.6,3.4c0,1.3,0.1,4.2,0.3,8.5
			c0.2,4.3,0.3,7.2,0.3,8.5c0,34.1-11,51.2-32.9,51.2c-7.2,0-13.1-2.5-17.9-7.4c-4.8-4.9-7.2-11-7.2-18.3c0-10.9,6.7-21.2,20.1-30.8
			c10.6-7.5,20.7-12.2,30.4-14.3c0-15.9-1.1-28.4-3.4-37.3c-0.7,2.1-2.7,6.3-5.8,12.7c-2.5,4.8-5.6,7.2-9.2,7.2
			c-4.8,0-8.3-2.5-10.7-7.4c-1.9-3.9-2.9-8.4-2.9-13.6c0-7.3,0.7-17.9,2-31.7c0-1.3,0.1-3.5,0.3-6.5c0.2-3,0.4-5.2,0.6-6.7
			c1.2-6.7,3.1-10.1,5.8-10.1c1.2,0,2.1,0.3,2.7,0.8c0.6,0.5,0.8,1.3,0.7,2.3l-2.5,22.8c-1.2,12.7-1.8,21.7-1.8,27
			c0,12.1,1.9,18.1,5.8,18.1c3.9,0,8.7-11.2,14.5-33.5c0.3-1.9,1-7.4,2.1-16.3c1.1-8.9,2.1-17.1,3-24.4c0.4-3.7,2.5-5.7,6-5.8
			c2.4-0.1,3.6,0.8,3.6,2.9c0,3.4-1.6,10.7-4.7,21.9c-1.5,5.1-2.1,20.2-1.8,45.4c0,4.3,0.2,11,0.7,20.1l0.4,9.8
			c0.3,0,3.2-0.7,8.7-2.2c4.8-1.2,8.1-1.8,10.1-1.8c6.6,0,9.8,1.7,9.8,5.1C253.5,192.5,253.3,193.1,252.9,193.9z M220,197.9
			c-13.1,3.6-24.1,9.8-32.9,18.6c-7.7,7.6-11.6,15.6-11.6,23.9c0,4.9,1.6,9.3,4.8,13.1c3.2,3.8,7,5.7,11.5,5.7
			c9.7,0,17.1-5.4,22.1-16.3c4-8.6,6-18.3,6-28.8V197.9z"/>
		<path style="fill:#F2F2F2;" d="M291.5,110.1c0,1-1.1,6-3.4,15c-5.7,22.4-11.3,37.3-16.8,44.9c-3.4,4.3-7.4,6.5-11.8,6.5
			c-6.3,0-11.3-3.5-15.2-10.5c-3-6-4.5-12.3-4.5-19c0-9.7,1-19.9,2.9-30.6c2.8-16.2,6.9-24.4,12.3-24.4c3.3,0,6.2,1.1,8.8,3.4
			c2.6,2.2,3.9,4.9,3.9,8c0,11-3.2,23.4-9.6,37.1c-2.5,5.7-5.7,11.4-9.4,17.2c0,2.5,1.3,5.4,3.8,8.7c2.5,3.1,5.1,4.7,7.6,4.7
			c7.2,0,15.2-17,24.1-51c2.2-8.5,3.6-12.7,4.2-12.7C290.6,107.4,291.5,108.3,291.5,110.1z M261.8,105.8c0-5.1-1-7.6-3.1-7.6
			c-1.2,0-2.1,1-2.7,2.9c-5.5,16.5-8.3,32.6-8.3,48.3c3.4-2.1,6.7-8.8,9.8-20.1C260.4,119.5,261.8,111.6,261.8,105.8z"/>
		<path style="fill:#F2F2F2;" d="M306.5,176.7c-7.8,0-13.8-5.5-18.1-16.5c-3.1-8.3-4.7-17.2-4.7-26.6c0-13.1,1.3-29.5,4-49.2
			c2.8-20.6,6.2-36.6,10.1-48.1c0.7-10.1,3.3-15.2,7.6-15.2c9.8,0,14.8,7.5,14.8,22.4c0,12.1-2.4,26.6-7.2,43.6
			c-4.9,17.4-10.7,30.9-17.4,40.5c0,0.1-1,1.6-3.1,4.5c-1.2,1.6-1.8,3.3-1.8,4.9c0,10.4,2.4,18.9,7.2,25.5c3.4,4.5,6.5,6.7,9.2,6.7
			c5.5,0,12.5-14.8,21-44.3c1.3-6,2.4-10.2,3.1-12.7c0.6-3.1,1.6-4.7,2.9-4.7c1.3,0,2,1.1,2,3.4c0,5.8-3,17.4-8.9,34.9
			C320.2,166.3,313.4,176.7,306.5,176.7z M309.6,29.4c-12.4,40.7-18.6,71.5-18.6,92.3c5.7-8.8,10.8-21.2,15.4-37.3
			c4.5-15,6.7-26.6,6.7-34.6C313.2,38.5,312,31.8,309.6,29.4z"/>
		<path style="fill:#F2F2F2;" d="M365.5,110.5c0,3.7-2.6,14.1-7.8,31.1c-3.9,12.2-6.3,19.5-7.4,21.9c-3,6.6-6.6,9.8-10.7,9.8
			c-4.6,0-8-2.7-10.3-8c-1.6-4.5-2.5-9.2-2.5-14.1c0-4.6,0.6-12.7,1.8-24.4c1.2-11.6,1.8-19.8,1.8-24.6c1-1,2.5-1.6,4.5-1.6
			c3.9,0,5.8,1,5.8,3.1c-0.1,0.6-0.4,1.5-0.7,2.7c-0.3,1.2-0.7,2.8-1.1,4.9c-0.4,2.1-0.9,4-1.3,5.6c-2.8,13.6-4.2,25.1-4.2,34.6
			c0,10,2.2,15,6.7,15c2.1,0,4.6-3.7,7.6-11.2c0.1-0.1,2.6-7.7,7.4-22.8c1.6-5.1,3.4-11.7,5.4-19.9c0.9-3.6,1.9-5.4,3.1-5.4
			C364.9,107.4,365.5,108.4,365.5,110.5z M347.2,49.9c0,5.5-1.9,8.3-5.6,8.3c-2.4,0-4.5-1-6.3-2.9c-1.8-1.9-2.7-4.1-2.7-6.5
			c0-1.5,0.8-3.1,2.3-4.7c1.6-1.6,3.1-2.5,4.6-2.5C344.7,41.7,347.2,44.4,347.2,49.9z"/>
		<path style="fill:#F2F2F2;" d="M435.4,150.6c0,6.3-1.3,12.3-3.9,17.9c-3.4,6.3-8.1,9.5-14.3,9.5c-5.6,0-10.4-2.3-14.5-7
			c-3-3-4.5-6-4.5-8.9c0-3.5,0.7-5.5,2.2-5.9c1.3,0,2,1.5,2,4.5c3.2,7.1,6.6,10.6,10.3,10.6c8.6,0,12.9-7.3,12.9-21.8
			c0-6.3-1.9-16.1-5.6-29.3c-2.1-6.7-4-12.6-5.9-17.6c-0.4,1.5-0.9,3.4-1.5,5.7c-0.7,2.3-1.5,5.3-2.7,8.9c-1.1,3.6-2.1,6.8-2.8,9.4
			c-1.9,6.3-4.3,9.5-7.3,9.5c-0.4,0-1.1-0.2-2.2-0.6c7.6-28.9,11.5-49.5,11.5-61.8c0-5,2.4-7.5,7.3-7.5c5.4,0,8.1,1.8,8.1,5.3
			c0,0.6-0.5,2.8-1.4,6.8c-0.9,4-1.4,6.7-1.4,8c0,7.1,2.2,18,6.7,32.7C433,133.2,435.4,143.7,435.4,150.6z"/>
		<path style="fill:#F2F2F2;" d="M486.5,173.5c-5.5,0-10.1-5.4-13.6-16.3c-3.7,13.9-8.7,20.8-15,20.8c-8.8,0-13-10.9-12.5-32.6
			c0.3-5.8,2.2-15.5,5.6-29.1c4.3-15.5,8-23.2,11-23.2c6.6,0,10.7,1.7,12.5,5.1l4,8l7.8,2.7c-3.7,10.9-6.3,24.2-7.6,40
			c-0.3,3.4,0,7,0.9,10.7c1.2,5.2,3.1,7.8,5.6,7.8c5.1,0,12-18.3,20.8-55c0.9-3.4,1.9-5.1,3.1-5.1c1.2,0,1.8,1.1,1.8,3.4
			c0,5.5-2.8,16.8-8.3,33.8C496.3,163.9,491,173.5,486.5,173.5z M475.6,114.5l-2.7-3.6c-0.6-6.9-2.5-10.3-5.6-10.3
			c-2.4,0-4.6,3.6-6.7,10.7c-0.7,2.4-2.3,7.6-4.7,15.6c-2.4,9.1-3.6,20.3-3.6,33.8c0,2.5,0.5,4.9,1.6,7.2c1.3,2.8,3.1,4.2,5.1,4.2
			c2.8-1.6,5.8-7.4,8.9-17.2c2.7-8.5,4.3-15.1,4.9-19.9L475.6,114.5z"/>
		<path style="fill:#F2F2F2;" d="M546.4,171.1c-3.3,0-6.1-2.5-8.5-7.4c-0.6-0.9-1.9-4.8-4-11.6c-0.7,1.8-1.9,4.5-3.5,8.3
			c-1.6,3.7-2.7,6.5-3.5,8.3c-2.7,4.6-6.2,6.9-10.5,6.9c-3.9,0-6.9-2.2-9.2-6.7c-1.8-3.7-2.7-7.7-2.7-12.1c0-7.6,0.3-16.8,0.9-27.5
			c0.6-15.2,1.4-23.6,2.5-25.3c0.7-1.2,2-1.8,3.8-1.8c1.5,0,2.8,0.6,4,1.9c1.2,1.3,1.8,2.6,1.8,4.1c0,1.5-0.3,3.2-0.9,5.1
			c-0.6,2.4-1,4.1-1.3,5.1c-2.1,12.1-3.1,25.9-3.1,41.6c0,6.6,1.4,9.8,4.2,9.8c2.2,0,4.3-1.9,6.3-5.6c1.8-3.9,3.1-6.8,3.8-8.7
			c3.3-7.7,5.7-17.4,7.4-29.1c0-0.1,0.5-3.4,1.6-9.6c0.7-4.8,1.1-8,1.1-9.6l-0.2-8.5c0.4-3.9,1.9-5.7,4.5-5.4c4.3,0,6.5,1.2,6.5,3.6
			c0,0.4-0.4,1.7-1.2,3.8c-0.8,2.1-1.3,3.6-1.5,4.5c0,1.6-0.7,7.2-2.2,16.8c-1.2,8.8-1.8,15.6-1.8,20.6c0,14.2,2.2,21.2,6.5,21.2
			c4,0,8.3-7.9,13-23.7c1.8-6.4,4.5-16.2,8-29.5c0.7-2.2,1.6-3.4,2.7-3.4c1.2,0,1.8,0.9,1.8,2.7c0,5.2-2.5,15.6-7.6,31.3
			C558.7,161.2,552.5,171.1,546.4,171.1z"/>
		<path style="fill:#F2F2F2;" d="M606.5,113.6c0,13.4-1.3,25.8-4,37.1c-4.2,17.6-11,26.4-20.6,26.4c-2.8,0-5.3-1.5-7.4-4.5
			c-2.4-3.7-4-5.7-4.9-6c-2.8,14.3-4.2,31.5-4.2,51.6c0,7.6,0.3,13.1,0.9,16.5c0.4,2.8,1.4,6,2.9,9.6c0,0.6-1,0.9-3.1,0.9
			c-5.1,0-7.6-8.9-7.6-26.6c0-13.6,1.7-34.4,5.1-62.6c3.3-26.7,4.8-46.3,4.5-59c-0.7-0.7-1.1-1.5-1.1-2.2c0-1.9,1.2-2.9,3.6-2.9
			c2.8,0,4.2,2.1,4.2,6.3c0,0.6-0.1,1.9-0.3,3.8c-0.2,1.9-0.3,3.1-0.3,3.6v2.2c0.1,1,0.2,2.3,0.2,3.8v8.7c1.5-4.5,3.5-9.8,6-15.9
			c3.9-8.5,6.8-12.7,8.7-12.7c6.9,0,11.6,2,14.3,6C605.5,101.1,606.5,106.3,606.5,113.6z M592.2,96.7c-1.9,0-3.7,1.8-5.1,5.4
			l-4.9,13c-7.3,19.1-10.8,31.7-10.5,37.8c3,1.6,4.5,3,4.5,4c0,0.3-0.3,0.9-1,1.7c-0.7,0.8-1,1.5-1,1.9c0,2.7,0.7,5.1,2,7.4
			c1.6,2.7,3.7,4,6.3,4c5.2,0,9.5-6.2,13-18.6c2.7-9.5,4-18,4-25.3v-2.7c0.1-1,0.2-2.4,0.2-4v-7.2
			C599.6,102.5,597.2,96.7,592.2,96.7z"/>
		<path style="fill:#F2F2F2;" d="M665.1,110.1c0,1-1.1,6-3.4,15c-5.7,22.4-11.3,37.3-16.8,44.9c-3.4,4.3-7.4,6.5-11.8,6.5
			c-6.3,0-11.3-3.5-15.2-10.5c-3-6-4.5-12.3-4.5-19c0-9.7,1-19.9,2.9-30.6c2.8-16.2,6.9-24.4,12.3-24.4c3.3,0,6.2,1.1,8.8,3.4
			c2.6,2.2,3.9,4.9,3.9,8c0,11-3.2,23.4-9.6,37.1c-2.5,5.7-5.7,11.4-9.4,17.2c0,2.5,1.3,5.4,3.8,8.7c2.5,3.1,5.1,4.7,7.6,4.7
			c7.2,0,15.2-17,24.1-51c2.2-8.5,3.6-12.7,4.2-12.7C664.2,107.4,665.1,108.3,665.1,110.1z M635.4,105.8c0-5.1-1-7.6-3.1-7.6
			c-1.2,0-2.1,1-2.7,2.9c-5.5,16.5-8.3,32.6-8.3,48.3c3.4-2.1,6.7-8.8,9.8-20.1C634,119.5,635.4,111.6,635.4,105.8z"/>
	</g>
</g>
<g id="photography">
	<g>
		<path style="fill:#F2F2F2;" d="M263.7,224.3v14.8h-2.2v-32.4l-0.3-8.4h1.7l0.5,4.2c1.5-2.5,4.2-4.7,9-4.7
			c8.1,0,11.5,6.7,11.5,14.8v1.1c0,8.1-3.4,14.8-11.5,14.8C268,228.5,265.2,226.6,263.7,224.3z M263.7,221.2
			c1.4,2.2,3.9,5.1,8.4,5.1c6.3,0,9.4-5,9.4-12.7v-1.1c0-7.7-3.1-12.7-9.4-12.7c-4.5,0-7,2.9-8.4,5.1V221.2z"/>
		<path style="fill:#F2F2F2;" d="M292.1,202.2c1.7-2.4,4.8-4.5,9.8-4.5c5.6,0,8.9,3.6,8.9,9.2v21h-2.2v-20.7c0-5.3-3.1-7.4-7.3-7.4
			c-5.3,0-7.8,2.9-9.2,5.1v22.9h-2.2v-44.7h2.2V202.2z"/>
		<path style="fill:#F2F2F2;" d="M316.5,213.6v-1.1c0-8.1,3.6-14.8,12-14.8c8.4,0,12,6.7,12,14.8v1.1c0,8.1-3.6,14.8-12,14.8
			C320.1,228.5,316.5,221.7,316.5,213.6z M338.2,213.6v-1.1c0-7.5-3-12.7-9.7-12.7c-6.6,0-9.7,5.1-9.7,12.7v1.1
			c0,7.5,3,12.7,9.7,12.7C335.2,226.3,338.2,221.2,338.2,213.6z"/>
		<path style="fill:#F2F2F2;" d="M360.9,198.3v2.1h-10.1v19.7c0,5,2.1,6.3,6.1,6.3c1.3,0,2.8-0.3,3.4-0.5v2.1
			c-0.4,0.2-1.7,0.6-3.9,0.6c-4.5,0-7.8-2.2-7.8-8.1v-19.9h-4.8v-2.1h4.8v-8.4h2.2v8.4H360.9z"/>
		<path style="fill:#F2F2F2;" d="M364.8,213.6v-1.1c0-8.1,3.6-14.8,12-14.8s12,6.7,12,14.8v1.1c0,8.1-3.6,14.8-12,14.8
			S364.8,221.7,364.8,213.6z M386.5,213.6v-1.1c0-7.5-3-12.7-9.7-12.7s-9.7,5.1-9.7,12.7v1.1c0,7.5,3,12.7,9.7,12.7
			S386.5,221.2,386.5,213.6z"/>
		<path style="fill:#F2F2F2;" d="M414.1,222c-1.6,2.3-4.3,4.2-8.7,4.2c-8.1,0-11.5-6.4-11.5-13.7v-1.1c0-7.3,3.4-13.7,11.5-13.7
			c4.7,0,7.5,2.2,8.9,4.7l0.6-4.2h1.7l-0.3,8.4v21.8c0,6.1-2.8,11.2-10.9,11.2s-10.9-5-10.9-11.2v-0.6h2.2c0,6.5,2.5,9.6,8.7,9.6
			c6.4,0,8.7-3.5,8.7-9.3V222z M405.7,199.8c-6.3,0-9.4,4.7-9.4,11.6v1.1c0,6.9,3.1,11.6,9.4,11.6c4.5,0,7-2.9,8.4-5.1v-14
			C412.7,202.7,410.2,199.8,405.7,199.8z"/>
		<path style="fill:#F2F2F2;" d="M435.3,197.8v2.1h-0.6c-4.8,0-7,2.9-8.4,5.1v22.9h-2.2v-21.2l-0.3-8.4h1.7l0.5,4.2
			c1.5-2.5,4.2-4.7,8.4-4.7C434.9,197.7,435.3,197.8,435.3,197.8z"/>
		<path style="fill:#F2F2F2;" d="M457.6,223.4c-1.9,2.6-5.3,5-10.9,5c-5,0-8.4-3.1-8.4-7.8v-0.6c0-6.4,5-8.2,9.4-8.8l9.6-1.5v-1.1
			c0-5.8-1.8-8.8-7.8-8.8c-6.4,0-7.8,3.7-7.8,8.2h-2.2v-0.5c0-4.2,1.7-9.8,10.1-9.8c7.7,0,10.1,4.6,10.1,10.9v10.9l0.3,8.4h-1.7
			L457.6,223.4z M457.3,220.7v-8.9l-9.8,1.6c-4.2,0.7-7,2.8-7,6.6v0.6c0,3,2,5.7,6.4,5.7C453.6,226.3,456.2,222.6,457.3,220.7z"/>
		<path style="fill:#F2F2F2;" d="M469.6,224.3v14.8h-2.2v-32.4l-0.3-8.4h1.7l0.5,4.2c1.5-2.5,4.2-4.7,9-4.7
			c8.1,0,11.5,6.7,11.5,14.8v1.1c0,8.1-3.4,14.8-11.5,14.8C473.8,228.5,471.1,226.6,469.6,224.3z M469.6,221.2
			c1.4,2.2,3.9,5.1,8.4,5.1c6.3,0,9.4-5,9.4-12.7v-1.1c0-7.7-3.1-12.7-9.4-12.7c-4.5,0-7,2.9-8.4,5.1V221.2z"/>
		<path style="fill:#F2F2F2;" d="M497.9,202.2c1.7-2.4,4.8-4.5,9.8-4.5c5.6,0,8.9,3.6,8.9,9.2v21h-2.2v-20.7c0-5.3-3.1-7.4-7.3-7.4
			c-5.3,0-7.8,2.9-9.2,5.1v22.9h-2.2v-44.7h2.2V202.2z"/>
		<path style="fill:#F2F2F2;" d="M540.8,198.3h2.3l-10.7,28.6l-4.4,12.2h-2.5l4.6-12.2l-10.7-28.6h2.3l9.4,26L540.8,198.3z"/>
	</g>
</g>
</svg>
