<?xml version="1.0" encoding="utf-8"?>
<!-- Generator: Adobe Illustrator 16.0.0, SVG Export Plug-In . SVG Version: 6.00 Build 0)  -->
<!DOCTYPE svg PUBLIC "-//W3C//DTD SVG 1.1//EN" "http://www.w3.org/Graphics/SVG/1.1/DTD/svg11.dtd">
<svg version="1.1" id="Layer_1" xmlns="http://www.w3.org/2000/svg" xmlns:xlink="http://www.w3.org/1999/xlink" x="0px" y="0px"
	 width="245.4px" height="52.1px" viewBox="0 0 245.4 52.1" style="enable-background:new 0 0 245.4 52.1;" xml:space="preserve">
<polygon style="fill-rule:evenodd;clip-rule:evenodd;fill:#333333;" points="0,47 245.4,47 245.4,52.1 0,52.1 0,47 "/>
<polygon style="fill-rule:evenodd;clip-rule:evenodd;fill:#333333;" points="26.9,22.6 27,23.6 27,24.5 26.9,24.5 26.9,24.5 
	26.9,23.6 26.9,22.6 "/>
<path style="fill-rule:evenodd;clip-rule:evenodd;fill:#333333;" d="M26.9,23.9c0.1,0,0.2,0.1,0.2,0.2s-0.1,0.2-0.2,0.2
	c-0.1,0-0.2-0.1-0.2-0.2S26.8,23.9,26.9,23.9L26.9,23.9z"/>
<polygon style="fill-rule:evenodd;clip-rule:evenodd;fill:#333333;" points="26.8,23.6 26.9,23.5 27.1,23.6 26.9,23.6 26.8,23.6 "/>
<polygon style="fill-rule:evenodd;clip-rule:evenodd;fill:#333333;" points="26.8,23.3 26.9,23.2 27,23.3 26.9,23.4 26.8,23.3 "/>
<path style="fill-rule:evenodd;clip-rule:evenodd;fill:#333333;" d="M26.9,24.4c0.1,0,0.3,0.1,0.3,0.3s-0.1,0.3-0.3,0.3
	c-0.1,0-0.3-0.1-0.3-0.3S26.8,24.4,26.9,24.4L26.9,24.4z"/>
<path style="fill-rule:evenodd;clip-rule:evenodd;fill:#333333;" d="M26.9,24.5c1.2,0,2.5,1.6,2.5,3S28.3,30,26.9,30
	c-1.4,0-2.5-1.1-2.5-2.5S25.7,24.5,26.9,24.5L26.9,24.5z"/>
<polygon style="fill-rule:evenodd;clip-rule:evenodd;fill:#333333;" points="23.7,27.6 30.1,27.6 30.1,27.7 30,27.9 30,28 29.9,28 
	23.9,28 23.9,28 23.9,27.9 23.7,27.7 23.7,27.6 "/>
<polygon style="fill-rule:evenodd;clip-rule:evenodd;fill:#333333;" points="24.3,27.9 29.5,27.9 29.5,28.3 24.3,28.3 24.3,27.9 "/>
<polygon style="fill-rule:evenodd;clip-rule:evenodd;fill:#333333;" points="24.3,28.5 29.5,28.5 29.5,28.6 24.3,28.6 24.3,28.5 "/>
<polygon style="fill-rule:evenodd;clip-rule:evenodd;fill:#333333;" points="24.4,28.1 29.4,28.1 29.4,32 24.4,32 24.4,28.1 "/>
<polygon style="fill-rule:evenodd;clip-rule:evenodd;fill:#333333;" points="22.8,31.8 31,31.8 31,35 22.8,35 22.8,31.8 "/>
<polygon style="fill-rule:evenodd;clip-rule:evenodd;fill:#333333;" points="22.7,31.8 31.1,31.8 31.1,31.9 22.7,31.9 22.7,31.8 "/>
<polygon style="fill-rule:evenodd;clip-rule:evenodd;fill:#333333;" points="22.4,32.5 31.4,32.5 31.4,32.6 22.4,32.6 22.4,32.5 "/>
<polygon style="fill-rule:evenodd;clip-rule:evenodd;fill:#333333;" points="22.5,32.9 31.4,32.9 31.4,33 22.5,33 22.5,32.9 "/>
<polygon style="fill-rule:evenodd;clip-rule:evenodd;fill:#333333;" points="22.5,32.6 31.3,32.6 31.3,33 22.5,33 22.5,32.6 "/>
<polygon style="fill-rule:evenodd;clip-rule:evenodd;fill:#333333;" points="16.9,37.6 36.9,37.6 36.9,47.8 16.9,47.8 16.9,37.6 "/>
<polygon style="fill-rule:evenodd;clip-rule:evenodd;fill:#333333;" points="18.3,36.7 26.9,36.7 26.9,36.7 35.6,36.7 30.5,34.7 
	26.9,34.7 26.9,34.7 23.3,34.7 18.3,36.7 "/>
<path style="fill-rule:evenodd;clip-rule:evenodd;fill:#333333;" d="M17.1,36.6h19.7v1.1H17.1V36.6L17.1,36.6z M17.3,37L17.3,37
	C17.4,37,17.4,37,17.3,37l0.1,0.5c0,0,0,0,0,0h0c0,0,0,0,0,0L17.3,37C17.3,37,17.3,37,17.3,37L17.3,37z M17.6,37L17.6,37
	C17.7,37,17.7,37,17.6,37l0.1,0.5c0,0,0,0,0,0h0c0,0,0,0,0,0L17.6,37C17.6,37,17.6,37,17.6,37L17.6,37z M17.9,37L17.9,37
	C18,37,18,37,17.9,37l0.1,0.5c0,0,0,0,0,0h0c0,0,0,0,0,0L17.9,37C17.9,37,17.9,37,17.9,37L17.9,37z M18.2,37L18.2,37
	C18.2,37,18.2,37,18.2,37l0.1,0.5c0,0,0,0,0,0h0c0,0,0,0,0,0L18.2,37C18.1,37,18.1,37,18.2,37L18.2,37z M35.6,37L35.6,37
	C35.7,37,35.7,37,35.6,37l0.1,0.5c0,0,0,0,0,0h0c0,0,0,0,0,0L35.6,37C35.6,37,35.6,37,35.6,37L35.6,37z M35.9,37L35.9,37
	C36,37,36,37,35.9,37l0.1,0.5c0,0,0,0,0,0h0c0,0,0,0,0,0L35.9,37C35.9,37,35.9,37,35.9,37L35.9,37z M36.2,37L36.2,37
	C36.3,37,36.3,37,36.2,37l0.1,0.5c0,0,0,0,0,0h0c0,0,0,0,0,0L36.2,37C36.2,37,36.2,37,36.2,37L36.2,37z M36.5,37L36.5,37
	C36.5,37,36.6,37,36.5,37l0.1,0.5c0,0,0,0,0,0h0c0,0,0,0,0,0L36.5,37C36.4,37,36.5,37,36.5,37L36.5,37z"/>
<polygon style="fill-rule:evenodd;clip-rule:evenodd;fill:#333333;" points="16.6,37.5 37.3,37.5 37.3,37.6 37.1,37.8 37.1,37.9 
	37.1,37.9 16.8,37.9 16.7,37.9 16.7,37.8 16.6,37.6 16.6,37.5 "/>
<polygon style="fill-rule:evenodd;clip-rule:evenodd;fill:#333333;" points="16.9,36.6 36.9,36.6 36.9,36.7 16.9,36.7 16.9,36.6 "/>
<polygon style="fill-rule:evenodd;clip-rule:evenodd;fill:#333333;" points="16.8,37.8 37,37.8 37,38.7 16.8,38.7 16.8,37.8 "/>
<polygon style="fill-rule:evenodd;clip-rule:evenodd;fill:#333333;" points="16.9,38.6 37,38.6 37,39 16.9,39 16.9,38.6 "/>
<polygon style="fill-rule:evenodd;clip-rule:evenodd;fill:#333333;" points="48.3,17.9 62.5,17.9 62.5,47.2 48.3,47.2 48.3,17.9 "/>
<polygon style="fill-rule:evenodd;clip-rule:evenodd;fill:#333333;" points="52.7,16.2 58.5,16.2 58.5,18.7 52.7,18.7 52.7,16.2 "/>
<polygon style="fill-rule:evenodd;clip-rule:evenodd;fill:#333333;" points="55.5,16 55.9,16 55.9,16.3 55.5,16.3 55.5,16 "/>
<polygon style="fill-rule:evenodd;clip-rule:evenodd;fill:#333333;" points="55.5,15.7 55.8,15.7 55.8,16.1 55.5,16.1 55.5,15.7 "/>
<polygon style="fill-rule:evenodd;clip-rule:evenodd;fill:#333333;" points="53.4,15.7 53.7,15.7 53.7,16.3 53.4,16.3 53.4,15.7 "/>
<polygon style="fill-rule:evenodd;clip-rule:evenodd;fill:#333333;" points="53.3,16.1 53.9,16.1 53.9,16.3 53.3,16.3 53.3,16.1 "/>
<polygon style="fill-rule:evenodd;clip-rule:evenodd;fill:#333333;" points="54.1,16 54.3,16 54.3,16.3 54.1,16.3 54.1,16 "/>
<path style="fill-rule:evenodd;clip-rule:evenodd;fill:#333333;" d="M56.4,16L56.4,16c0.1,0,0.1,0,0.1,0.1v0.1c0,0,0,0.1-0.1,0.1h0
	c0,0-0.1,0-0.1-0.1L56.4,16C56.4,16,56.4,16,56.4,16L56.4,16z"/>
<path style="fill-rule:evenodd;clip-rule:evenodd;fill:#333333;" d="M54.8,16L54.8,16c0.1,0,0.1,0,0.1,0.1v0.1c0,0,0,0.1-0.1,0.1h0
	c0,0-0.1,0-0.1-0.1L54.8,16C54.7,16,54.8,16,54.8,16L54.8,16z"/>
<polygon style="fill-rule:evenodd;clip-rule:evenodd;fill:#333333;" points="57.1,16 57.9,16 57.9,16.3 57.1,16.3 57.1,16 "/>
<path style="fill-rule:evenodd;clip-rule:evenodd;fill:#333333;" d="M58.2,16.1h-0.3c0,0-0.1,0-0.1,0.1v0.2c0,0,0,0.1,0.1,0.1h0.3
	c0,0,0.1,0,0.1-0.1L58.2,16.1C58.3,16.1,58.3,16.1,58.2,16.1L58.2,16.1z"/>
<path style="fill-rule:evenodd;clip-rule:evenodd;fill:#333333;" d="M58,15.7h0.1c0,0,0.1,0,0.1,0.1v0.4c0,0,0,0.1-0.1,0.1H58
	c0,0-0.1,0-0.1-0.1L58,15.7C57.9,15.7,58,15.7,58,15.7L58,15.7z"/>
<path style="fill-rule:evenodd;clip-rule:evenodd;fill:#333333;" d="M60.1,17.4h0.5c0,0,0,0,0,0V18c0,0,0,0,0,0h-0.5c0,0,0,0,0,0
	L60.1,17.4C60,17.4,60,17.4,60.1,17.4L60.1,17.4z"/>
<polygon style="fill-rule:evenodd;clip-rule:evenodd;fill:#333333;" points="59.9,17.8 60.8,17.8 60.8,18.1 59.9,18.1 59.9,17.8 "/>
<path style="fill-rule:evenodd;clip-rule:evenodd;fill:#333333;" d="M61.2,17.4h0.2c0.1,0,0.2,0.1,0.2,0.2v0.4
	c0,0.1-0.1,0.2-0.2,0.2h-0.2c-0.1,0-0.2-0.1-0.2-0.2v-0.4C61.1,17.4,61.1,17.4,61.2,17.4L61.2,17.4z"/>
<path style="fill-rule:evenodd;clip-rule:evenodd;fill:#333333;" d="M51.1,16.7L51.1,16.7c0.2,0,0.4,0.1,0.4,0.2v1.2
	c0,0.1-0.2,0.2-0.4,0.2l0,0c-0.2,0-0.4-0.1-0.4-0.2V17C50.7,16.8,50.9,16.7,51.1,16.7L51.1,16.7z"/>
<path style="fill-rule:evenodd;clip-rule:evenodd;fill:#333333;" d="M51.7,16.7L51.7,16.7c0.2,0,0.4,0.1,0.4,0.2v1.2
	c0,0.1-0.2,0.2-0.4,0.2l0,0c-0.2,0-0.4-0.1-0.4-0.2V17C51.4,16.8,51.5,16.7,51.7,16.7L51.7,16.7z"/>
<polygon style="fill-rule:evenodd;clip-rule:evenodd;fill:#333333;" points="52.8,14.2 52.9,15 52.9,16.5 52.8,16.5 52.7,16.5 
	52.8,15 52.8,14.2 52.8,14.2 "/>
<path style="fill-rule:evenodd;clip-rule:evenodd;fill:#333333;" d="M52.8,14.7c0.1,0,0.1,0.1,0.1,0.1s-0.1,0.1-0.1,0.1
	s-0.1-0.1-0.1-0.1S52.8,14.7,52.8,14.7L52.8,14.7z"/>
<polygon style="fill-rule:evenodd;clip-rule:evenodd;fill:#333333;" points="58.1,14.9 58.1,15.7 58.2,17.1 58.1,17.1 58,17.1 
	58,15.7 58.1,14.9 58.1,14.9 "/>
<polygon style="fill-rule:evenodd;clip-rule:evenodd;fill:#333333;" points="48.8,17.7 49.7,17.7 49.7,18.1 48.8,18.1 48.8,17.7 "/>
<polygon style="fill-rule:evenodd;clip-rule:evenodd;fill:#333333;" points="50.1,17.8 51.1,17.8 51.1,18.2 50.1,18.2 50.1,17.8 "/>
<polygon style="fill-rule:evenodd;clip-rule:evenodd;fill:#333333;" points="50.4,17.6 50.8,17.6 50.8,17.8 50.4,17.8 50.4,17.6 "/>
<polygon style="fill-rule:evenodd;clip-rule:evenodd;fill:#333333;" points="171,34.7 158.4,34.7 158.4,48.4 171,48.4 171,34.7 "/>
<path style="fill-rule:evenodd;clip-rule:evenodd;fill:#333333;" d="M164.7,29.2c0.5,0,0.9,0.5,0.9,1.1c0,0.6-0.4,1.1-0.9,1.1
	s-0.9-0.5-0.9-1.1C163.7,29.7,164.2,29.2,164.7,29.2L164.7,29.2z"/>
<polygon style="fill-rule:evenodd;clip-rule:evenodd;fill:#333333;" points="163.5,30.4 165.8,30.4 165.8,31.7 163.5,31.7 
	163.5,30.4 "/>
<path style="fill-rule:evenodd;clip-rule:evenodd;fill:#333333;" d="M165.8,29.9h0.2c0,0,0.1,0,0.1,0.1v0.5c0,0,0,0.1-0.1,0.1
	l-0.1,0.2h-2.4l-0.1-0.2c0,0-0.1,0-0.1-0.1V30c0,0,0-0.1,0.1-0.1h0.2c0,0,0.1,0,0.1,0.1v0.5h2.1L165.8,29.9
	C165.7,29.9,165.7,29.9,165.8,29.9L165.8,29.9z"/>
<polygon style="fill-rule:evenodd;clip-rule:evenodd;fill:#333333;" points="163.5,30.9 165.9,30.9 165.9,31 163.5,31 163.5,30.9 
	"/>
<polygon style="fill-rule:evenodd;clip-rule:evenodd;fill:#333333;" points="162.4,31.4 167,31.4 167,34.7 162.4,34.7 162.4,31.4 
	"/>
<polygon style="fill-rule:evenodd;clip-rule:evenodd;fill:#333333;" points="162.3,31.9 167.1,31.9 167.1,32.3 162.3,32.3 
	162.3,31.9 "/>
<path style="fill-rule:evenodd;clip-rule:evenodd;fill:#333333;" d="M162.6,31.2h0.6c0.1,0,0.1,0.1,0.1,0.1v0.1
	c0,0.1-0.1,0.1-0.1,0.1h-0.6c-0.1,0-0.1-0.1-0.1-0.1v-0.1C162.5,31.2,162.5,31.2,162.6,31.2L162.6,31.2z"/>
<path style="fill-rule:evenodd;clip-rule:evenodd;fill:#333333;" d="M166.1,31.2h0.6c0.1,0,0.1,0.1,0.1,0.1v0.1
	c0,0.1-0.1,0.1-0.1,0.1h-0.6c-0.1,0-0.1-0.1-0.1-0.1v-0.1C166,31.2,166,31.2,166.1,31.2L166.1,31.2z"/>
<polygon style="fill-rule:evenodd;clip-rule:evenodd;fill:#333333;" points="174.5,36.6 169.5,36.6 169.5,48.4 174.5,48.4 
	174.5,36.6 "/>
<polygon style="fill-rule:evenodd;clip-rule:evenodd;fill:#333333;" points="174.9,36.1 169,36.1 169,36.7 174.9,36.7 174.9,36.1 
	"/>
<polygon style="fill-rule:evenodd;clip-rule:evenodd;fill:#333333;" points="174.8,36.7 174.1,36.7 174.1,37.1 174.8,36.9 
	174.8,36.7 "/>
<polygon style="fill-rule:evenodd;clip-rule:evenodd;fill:#333333;" points="174.4,35.3 169.5,35.3 169.5,36.3 174.4,36.3 
	174.4,35.3 "/>
<polygon style="fill-rule:evenodd;clip-rule:evenodd;fill:#333333;" points="171.7,34 171.8,34 174.6,35.3 169.4,35.3 171.7,34 "/>
<polygon style="fill-rule:evenodd;clip-rule:evenodd;fill:#333333;" points="174.6,35.2 169.4,35.2 169.4,35.4 174.6,35.4 
	174.6,35.2 "/>
<polygon style="fill-rule:evenodd;clip-rule:evenodd;fill:#333333;" points="154.9,36.6 159.9,36.6 159.9,48.4 154.9,48.4 
	154.9,36.6 "/>
<polygon style="fill-rule:evenodd;clip-rule:evenodd;fill:#333333;" points="154.5,36.1 160.3,36.1 160.3,36.7 154.5,36.7 
	154.5,36.1 "/>
<polygon style="fill-rule:evenodd;clip-rule:evenodd;fill:#333333;" points="154.6,36.7 155.3,36.7 155.3,37.1 154.6,36.9 
	154.6,36.7 "/>
<polygon style="fill-rule:evenodd;clip-rule:evenodd;fill:#333333;" points="155,35.3 159.9,35.3 159.9,36.3 155,36.3 155,35.3 "/>
<polygon style="fill-rule:evenodd;clip-rule:evenodd;fill:#333333;" points="157.7,34 157.5,34 154.8,35.3 159.9,35.3 157.7,34 "/>
<polygon style="fill-rule:evenodd;clip-rule:evenodd;fill:#333333;" points="154.7,35.2 160,35.2 160,35.4 154.7,35.4 154.7,35.2 
	"/>
<polygon style="fill-rule:evenodd;clip-rule:evenodd;fill:#333333;" points="194.2,26.2 178.8,26.2 178.8,48.9 194.2,48.9 
	194.2,26.2 "/>
<polygon style="fill-rule:evenodd;clip-rule:evenodd;fill:#333333;" points="194,26 179,26 179,27.2 194,27.2 194,26 "/>
<polygon style="fill-rule:evenodd;clip-rule:evenodd;fill:#333333;" points="193.3,23.6 179.6,23.6 179.6,27 193.3,27 193.3,23.6 
	"/>
<polygon style="fill-rule:evenodd;clip-rule:evenodd;fill:#333333;" points="192.5,22.9 190.6,21.5 182.3,21.5 180.4,22.9 
	180.4,25.6 192.5,25.6 192.5,22.9 "/>
<polygon style="fill-rule:evenodd;clip-rule:evenodd;fill:#333333;" points="190.4,20.8 190.4,21.3 190.3,21.8 190.4,21.8 
	190.5,21.8 190.5,21.3 190.4,20.8 "/>
<polygon style="fill-rule:evenodd;clip-rule:evenodd;fill:#333333;" points="182.5,21 182.4,21.3 182.4,21.6 182.5,21.6 182.6,21.6 
	182.5,21.3 182.5,21 "/>
<polygon style="fill-rule:evenodd;clip-rule:evenodd;fill:#333333;" points="219,23.7 232.2,23.7 232.2,48.8 219,48.8 219,23.7 "/>
<polygon style="fill-rule:evenodd;clip-rule:evenodd;fill:#333333;" points="228.2,20 232.2,20 232.2,48.8 228.2,48.8 228.2,20 "/>
<polygon style="fill-rule:evenodd;clip-rule:evenodd;fill:#333333;" points="219.7,21.4 232.2,21.4 232.2,46.5 219.7,46.5 
	219.7,21.4 "/>
<polygon style="fill-rule:evenodd;clip-rule:evenodd;fill:#333333;" points="220.6,18 230.8,18 230.8,43.2 220.6,43.2 220.6,18 "/>
<polygon style="fill-rule:evenodd;clip-rule:evenodd;fill:#333333;" points="221.2,15.8 230.3,15.8 230.3,40.9 221.2,40.9 
	221.2,15.8 "/>
<polygon style="fill-rule:evenodd;clip-rule:evenodd;fill:#333333;" points="229.6,14.5 221.9,14.5 221.9,16.4 229.6,16.4 
	229.6,14.5 "/>
<polygon style="fill-rule:evenodd;clip-rule:evenodd;fill:#333333;" points="228.4,14.1 227.5,14.1 227.5,14.6 228.4,14.6 
	228.4,14.1 "/>
<polygon style="fill-rule:evenodd;clip-rule:evenodd;fill:#333333;" points="225.9,14.3 227.8,14.3 227.8,14.8 225.9,14.8 
	225.9,14.3 "/>
<polygon style="fill-rule:evenodd;clip-rule:evenodd;fill:#333333;" points="231.2,17.7 231.5,17.7 231.5,20.3 231.2,20.3 
	231.2,17.7 "/>
<polygon style="fill-rule:evenodd;clip-rule:evenodd;fill:#333333;" points="230.7,18.3 231.3,18.3 231.3,18.5 230.7,18.5 
	230.7,18.3 "/>
<polygon style="fill-rule:evenodd;clip-rule:evenodd;fill:#333333;" points="230.7,19 231.3,19 231.3,19.1 230.7,19.1 230.7,19 "/>
<polygon style="fill-rule:evenodd;clip-rule:evenodd;fill:#333333;" points="230.7,19.6 231.3,19.6 231.3,19.7 230.7,19.7 
	230.7,19.6 "/>
<polygon style="fill-rule:evenodd;clip-rule:evenodd;fill:#333333;" points="231.9,21.3 232.5,21.3 232.5,22.5 231.9,22.5 
	231.9,21.3 "/>
<polygon style="fill-rule:evenodd;clip-rule:evenodd;fill:#333333;" points="231.8,18.6 232.5,18.6 232.5,20.1 231.8,20.1 
	231.8,18.6 "/>
<polygon style="fill-rule:evenodd;clip-rule:evenodd;fill:#333333;" points="231.5,19.1 232.7,19.1 232.7,20.3 231.5,20.3 
	231.5,19.1 "/>
<polygon style="fill-rule:evenodd;clip-rule:evenodd;fill:#333333;" points="232.3,19.6 232.9,19.6 232.9,20.1 232.3,20.2 
	232.3,19.6 "/>
<polygon style="fill-rule:evenodd;clip-rule:evenodd;fill:#333333;" points="232.3,23.4 231.9,23.4 231.9,23.7 232.3,23.7 
	232.3,23.4 "/>
<polygon style="fill-rule:evenodd;clip-rule:evenodd;fill:#333333;" points="232.3,24.8 231.9,24.8 231.9,25 232.3,25 232.3,24.8 
	"/>
<polygon style="fill-rule:evenodd;clip-rule:evenodd;fill:#333333;" points="232.3,26.1 231.9,26.1 231.9,26.4 232.3,26.4 
	232.3,26.1 "/>
<polygon style="fill-rule:evenodd;clip-rule:evenodd;fill:#333333;" points="232.3,27.4 231.9,27.4 231.9,27.7 232.3,27.7 
	232.3,27.4 "/>
<polygon style="fill-rule:evenodd;clip-rule:evenodd;fill:#333333;" points="232.3,28.7 231.9,28.7 231.9,29 232.3,29 232.3,28.7 
	"/>
<polygon style="fill-rule:evenodd;clip-rule:evenodd;fill:#333333;" points="232.3,30.1 231.9,30.1 231.9,30.3 232.3,30.3 
	232.3,30.1 "/>
<polygon style="fill-rule:evenodd;clip-rule:evenodd;fill:#333333;" points="232.3,31.4 231.9,31.4 231.9,31.6 232.3,31.6 
	232.3,31.4 "/>
<polygon style="fill-rule:evenodd;clip-rule:evenodd;fill:#333333;" points="232.3,32.7 231.9,32.7 231.9,33 232.3,33 232.3,32.7 
	"/>
<polygon style="fill-rule:evenodd;clip-rule:evenodd;fill:#333333;" points="232.3,34 231.9,34 231.9,34.3 232.3,34.3 232.3,34 "/>
<polygon style="fill-rule:evenodd;clip-rule:evenodd;fill:#333333;" points="232.3,35.3 231.9,35.3 231.9,35.6 232.3,35.6 
	232.3,35.3 "/>
<polygon style="fill-rule:evenodd;clip-rule:evenodd;fill:#333333;" points="232.3,36.7 231.9,36.7 231.9,36.9 232.3,36.9 
	232.3,36.7 "/>
<polygon style="fill-rule:evenodd;clip-rule:evenodd;fill:#333333;" points="232.3,38 231.9,38 231.9,38.3 232.3,38.3 232.3,38 "/>
<polygon style="fill-rule:evenodd;clip-rule:evenodd;fill:#333333;" points="232.3,39.3 231.9,39.3 231.9,39.6 232.3,39.6 
	232.3,39.3 "/>
<polygon style="fill-rule:evenodd;clip-rule:evenodd;fill:#333333;" points="232.3,40.6 231.9,40.6 231.9,40.9 232.3,40.9 
	232.3,40.6 "/>
<polygon style="fill-rule:evenodd;clip-rule:evenodd;fill:#333333;" points="232.3,42 231.9,42 231.9,42.2 232.3,42.2 232.3,42 "/>
<polygon style="fill-rule:evenodd;clip-rule:evenodd;fill:#333333;" points="232.3,43.3 231.9,43.3 231.9,43.5 232.3,43.5 
	232.3,43.3 "/>
<polygon style="fill-rule:evenodd;clip-rule:evenodd;fill:#333333;" points="232.3,44.6 231.9,44.6 231.9,44.9 232.3,44.9 
	232.3,44.6 "/>
<polygon style="fill-rule:evenodd;clip-rule:evenodd;fill:#333333;" points="232.3,45.9 231.9,45.9 231.9,46.2 232.3,46.2 
	232.3,45.9 "/>
<polygon style="fill-rule:evenodd;clip-rule:evenodd;fill:#333333;" points="232.3,47.2 231.9,47.2 231.9,47.5 232.3,47.5 
	232.3,47.2 "/>
<polygon style="fill-rule:evenodd;clip-rule:evenodd;fill:#333333;" points="219.2,24.8 218.8,24.8 218.8,25 219.2,25 219.2,24.8 
	"/>
<polygon style="fill-rule:evenodd;clip-rule:evenodd;fill:#333333;" points="219.2,26.1 218.8,26.1 218.8,26.4 219.2,26.4 
	219.2,26.1 "/>
<polygon style="fill-rule:evenodd;clip-rule:evenodd;fill:#333333;" points="219.2,27.4 218.8,27.4 218.8,27.7 219.2,27.7 
	219.2,27.4 "/>
<polygon style="fill-rule:evenodd;clip-rule:evenodd;fill:#333333;" points="219.2,28.7 218.8,28.7 218.8,29 219.2,29 219.2,28.7 
	"/>
<polygon style="fill-rule:evenodd;clip-rule:evenodd;fill:#333333;" points="219.2,30.1 218.8,30.1 218.8,30.3 219.2,30.3 
	219.2,30.1 "/>
<polygon style="fill-rule:evenodd;clip-rule:evenodd;fill:#333333;" points="219.2,31.4 218.8,31.4 218.8,31.6 219.2,31.6 
	219.2,31.4 "/>
<polygon style="fill-rule:evenodd;clip-rule:evenodd;fill:#333333;" points="219.2,32.7 218.8,32.7 218.8,33 219.2,33 219.2,32.7 
	"/>
<polygon style="fill-rule:evenodd;clip-rule:evenodd;fill:#333333;" points="219.2,34 218.8,34 218.8,34.3 219.2,34.3 219.2,34 "/>
<polygon style="fill-rule:evenodd;clip-rule:evenodd;fill:#333333;" points="219.2,35.3 218.8,35.3 218.8,35.6 219.2,35.6 
	219.2,35.3 "/>
<polygon style="fill-rule:evenodd;clip-rule:evenodd;fill:#333333;" points="219.2,36.7 218.8,36.7 218.8,36.9 219.2,36.9 
	219.2,36.7 "/>
<polygon style="fill-rule:evenodd;clip-rule:evenodd;fill:#333333;" points="219.2,38 218.8,38 218.8,38.3 219.2,38.3 219.2,38 "/>
<polygon style="fill-rule:evenodd;clip-rule:evenodd;fill:#333333;" points="219.2,39.3 218.8,39.3 218.8,39.6 219.2,39.6 
	219.2,39.3 "/>
<polygon style="fill-rule:evenodd;clip-rule:evenodd;fill:#333333;" points="219.2,40.6 218.8,40.6 218.8,40.9 219.2,40.9 
	219.2,40.6 "/>
<polygon style="fill-rule:evenodd;clip-rule:evenodd;fill:#333333;" points="219.2,42 218.8,42 218.8,42.2 219.2,42.2 219.2,42 "/>
<polygon style="fill-rule:evenodd;clip-rule:evenodd;fill:#333333;" points="219.2,43.3 218.8,43.3 218.8,43.5 219.2,43.5 
	219.2,43.3 "/>
<polygon style="fill-rule:evenodd;clip-rule:evenodd;fill:#333333;" points="219.2,44.6 218.8,44.6 218.8,44.9 219.2,44.9 
	219.2,44.6 "/>
<polygon style="fill-rule:evenodd;clip-rule:evenodd;fill:#333333;" points="219.2,45.9 218.8,45.9 218.8,46.2 219.2,46.2 
	219.2,45.9 "/>
<polygon style="fill-rule:evenodd;clip-rule:evenodd;fill:#333333;" points="219.2,47.2 218.8,47.2 218.8,47.5 219.2,47.5 
	219.2,47.2 "/>
<polygon style="fill-rule:evenodd;clip-rule:evenodd;fill:#333333;" points="202.3,38.2 214.7,38.2 214.7,48.4 202.3,48.4 
	202.3,38.2 "/>
<path style="fill-rule:evenodd;clip-rule:evenodd;fill:#333333;" d="M215.2,28.4c0.1,0,0.2,0.1,0.2,0.2c0,0.1-0.1,0.2-0.2,0.2
	s-0.2-0.1-0.2-0.2C215,28.5,215.1,28.4,215.2,28.4L215.2,28.4z"/>
<path style="fill-rule:evenodd;clip-rule:evenodd;fill:#333333;" d="M215.2,28.2C215.3,28.2,215.3,28.2,215.2,28.2
	C215.3,28.3,215.3,28.3,215.2,28.2C215.2,28.3,215.1,28.3,215.2,28.2C215.1,28.2,215.2,28.2,215.2,28.2L215.2,28.2z"/>
<path style="fill-rule:evenodd;clip-rule:evenodd;fill:#333333;" d="M215.2,28.3c0.1,0,0.1,0,0.1,0S215.3,28.4,215.2,28.3
	c-0.1,0.1-0.1,0.1-0.1,0S215.1,28.3,215.2,28.3L215.2,28.3z"/>
<polygon style="fill-rule:evenodd;clip-rule:evenodd;fill:#333333;" points="215.2,27 215.2,27.8 215.3,28.7 215.2,28.7 215.1,28.7 
	215.2,27.8 215.2,27 "/>
<path style="fill-rule:evenodd;clip-rule:evenodd;fill:#333333;" d="M215.2,27.4C215.2,27.4,215.3,27.4,215.2,27.4
	C215.3,27.4,215.2,27.4,215.2,27.4C215.2,27.4,215.2,27.4,215.2,27.4C215.2,27.4,215.2,27.4,215.2,27.4L215.2,27.4z"/>
<path style="fill-rule:evenodd;clip-rule:evenodd;fill:#333333;" d="M215.2,27.9c0.1,0,0.1,0,0.1,0S215.3,28,215.2,27.9
	c-0.1,0-0.1,0-0.1,0S215.1,27.9,215.2,27.9L215.2,27.9z"/>
<path style="fill-rule:evenodd;clip-rule:evenodd;fill:#333333;" d="M215.2,27.9C215.3,27.9,215.3,28,215.2,27.9
	c0.1,0.1,0,0.1,0,0.1S215.1,28,215.2,27.9C215.1,28,215.2,27.9,215.2,27.9L215.2,27.9z"/>
<polygon style="fill-rule:evenodd;clip-rule:evenodd;fill:#333333;" points="215.3,28.9 215.6,30 215.9,31.7 215.2,31.7 214.5,31.7 
	214.8,30 215.1,28.9 215.3,28.9 "/>
<polygon style="fill-rule:evenodd;clip-rule:evenodd;fill:#333333;" points="215.1,28.7 215.3,28.7 215.3,28.9 215.1,28.9 
	215.1,28.7 "/>
<polygon style="fill-rule:evenodd;clip-rule:evenodd;fill:#333333;" points="215,28.9 215.2,28.8 215.4,28.9 215.4,28.9 215.2,29 
	215,28.9 215,28.9 "/>
<polygon style="fill-rule:evenodd;clip-rule:evenodd;fill:#333333;" points="214.3,30.8 214.4,31.2 214.5,31.5 214.3,31.5 
	214.2,31.5 214.3,31.2 214.3,30.8 "/>
<path style="fill-rule:evenodd;clip-rule:evenodd;fill:#333333;" d="M214.3,31C214.4,31,214.4,31,214.3,31
	C214.4,31,214.4,31,214.3,31C214.3,31,214.3,31,214.3,31C214.3,31,214.3,31,214.3,31L214.3,31z"/>
<path style="fill-rule:evenodd;clip-rule:evenodd;fill:#333333;" d="M214.3,30.9C214.4,30.9,214.4,30.9,214.3,30.9
	C214.4,31,214.4,31,214.3,30.9C214.3,31,214.3,31,214.3,30.9C214.3,30.9,214.3,30.9,214.3,30.9L214.3,30.9z"/>
<path style="fill-rule:evenodd;clip-rule:evenodd;fill:#333333;" d="M214.3,30.9C214.3,30.9,214.4,30.9,214.3,30.9
	C214.4,30.9,214.3,30.9,214.3,30.9C214.3,30.9,214.3,30.9,214.3,30.9C214.3,30.9,214.3,30.9,214.3,30.9L214.3,30.9z"/>
<polygon style="fill-rule:evenodd;clip-rule:evenodd;fill:#333333;" points="214.1,31.5 214.3,31.5 214.5,31.5 214.5,31.5 
	214.3,31.6 214.1,31.5 214.1,31.5 "/>
<polygon style="fill-rule:evenodd;clip-rule:evenodd;fill:#333333;" points="214.2,31.5 214.5,31.5 214.5,34.1 214.2,34.1 
	214.2,31.5 "/>
<polygon style="fill-rule:evenodd;clip-rule:evenodd;fill:#333333;" points="214.1,31.7 214.3,31.6 214.5,31.7 214.5,31.7 
	214.3,31.8 214.1,31.7 214.1,31.7 "/>
<polygon style="fill-rule:evenodd;clip-rule:evenodd;fill:#333333;" points="213.9,32.2 213.9,32.6 214,32.9 213.9,32.9 213.7,32.9 
	213.8,32.6 213.9,32.2 "/>
<path style="fill-rule:evenodd;clip-rule:evenodd;fill:#333333;" d="M213.9,32.3C213.9,32.3,213.9,32.4,213.9,32.3
	C213.9,32.4,213.9,32.4,213.9,32.3C213.8,32.4,213.8,32.4,213.9,32.3C213.8,32.4,213.8,32.3,213.9,32.3L213.9,32.3z"/>
<path style="fill-rule:evenodd;clip-rule:evenodd;fill:#333333;" d="M213.9,32.3C213.9,32.3,213.9,32.3,213.9,32.3
	C213.9,32.3,213.9,32.4,213.9,32.3C213.8,32.4,213.8,32.3,213.9,32.3C213.8,32.3,213.8,32.3,213.9,32.3L213.9,32.3z"/>
<path style="fill-rule:evenodd;clip-rule:evenodd;fill:#333333;" d="M213.9,32.2C213.9,32.2,213.9,32.2,213.9,32.2
	C213.9,32.3,213.9,32.3,213.9,32.2C213.8,32.3,213.8,32.3,213.9,32.2C213.8,32.2,213.8,32.2,213.9,32.2L213.9,32.2z"/>
<polygon style="fill-rule:evenodd;clip-rule:evenodd;fill:#333333;" points="213.7,32.9 213.9,32.8 214,32.9 214,32.9 213.9,33 
	213.7,32.9 213.7,32.9 "/>
<polygon style="fill-rule:evenodd;clip-rule:evenodd;fill:#333333;" points="213.7,32.9 214,32.9 214,34.5 213.7,34.5 213.7,32.9 
	"/>
<polygon style="fill-rule:evenodd;clip-rule:evenodd;fill:#333333;" points="213.7,33.1 213.9,33 214,33.1 214,33.1 213.9,33.1 
	213.7,33.1 213.7,33.1 "/>
<polygon style="fill-rule:evenodd;clip-rule:evenodd;fill:#333333;" points="213.2,33.6 213.3,34.1 213.5,34.6 213.2,34.6 213,34.6 
	213.1,34.1 213.2,33.6 "/>
<path style="fill-rule:evenodd;clip-rule:evenodd;fill:#333333;" d="M213.2,33.8C213.3,33.8,213.3,33.8,213.2,33.8
	C213.3,33.9,213.3,33.9,213.2,33.8C213.2,33.9,213.1,33.9,213.2,33.8C213.1,33.8,213.2,33.8,213.2,33.8L213.2,33.8z"/>
<path style="fill-rule:evenodd;clip-rule:evenodd;fill:#333333;" d="M213.2,33.7C213.3,33.7,213.3,33.7,213.2,33.7
	c0.1,0.1,0,0.1,0,0.1C213.2,33.8,213.2,33.8,213.2,33.7C213.2,33.7,213.2,33.7,213.2,33.7L213.2,33.7z"/>
<path style="fill-rule:evenodd;clip-rule:evenodd;fill:#333333;" d="M213.2,33.7C213.2,33.7,213.2,33.7,213.2,33.7
	C213.2,33.7,213.2,33.7,213.2,33.7C213.2,33.7,213.2,33.7,213.2,33.7C213.2,33.7,213.2,33.7,213.2,33.7L213.2,33.7z"/>
<polygon style="fill-rule:evenodd;clip-rule:evenodd;fill:#333333;" points="212.9,34.6 213.2,34.6 213.5,34.6 213.5,34.6 
	213.2,34.7 212.9,34.6 212.9,34.6 "/>
<polygon style="fill-rule:evenodd;clip-rule:evenodd;fill:#333333;" points="213,34.6 213.5,34.6 213.5,38.3 213,38.3 213,34.6 "/>
<polygon style="fill-rule:evenodd;clip-rule:evenodd;fill:#333333;" points="212.9,34.9 213.2,34.8 213.5,34.9 213.5,34.9 213.2,35 
	212.9,34.9 212.9,34.9 "/>
<path style="fill-rule:evenodd;clip-rule:evenodd;fill:#333333;" d="M213.8,34.3c0.2,0,0.4,0.2,0.4,0.4s-0.2,0.4-0.4,0.4
	s-0.4-0.2-0.4-0.4S213.6,34.3,213.8,34.3L213.8,34.3z"/>
<polygon style="fill-rule:evenodd;clip-rule:evenodd;fill:#333333;" points="214.1,32.2 214.3,32.2 214.3,32.4 214.1,32.3 
	214.1,32.2 "/>
<polygon style="fill-rule:evenodd;clip-rule:evenodd;fill:#333333;" points="213.6,33.8 213.8,33.8 213.8,34 213.6,33.9 213.6,33.8 
	"/>
<polygon style="fill-rule:evenodd;clip-rule:evenodd;fill:#333333;" points="216.1,30.8 216,31.2 215.9,31.5 216.1,31.5 216.2,31.5 
	216.2,31.2 216.1,30.8 "/>
<path style="fill-rule:evenodd;clip-rule:evenodd;fill:#333333;" d="M216.1,31C216.1,31,216,31,216.1,31C216,31,216.1,31,216.1,31
	C216.1,31,216.1,31,216.1,31C216.1,31,216.1,31,216.1,31L216.1,31z"/>
<path style="fill-rule:evenodd;clip-rule:evenodd;fill:#333333;" d="M216.1,30.9C216.1,30.9,216,30.9,216.1,30.9
	C216,31,216.1,31,216.1,30.9C216.1,31,216.1,31,216.1,30.9C216.1,30.9,216.1,30.9,216.1,30.9L216.1,30.9z"/>
<path style="fill-rule:evenodd;clip-rule:evenodd;fill:#333333;" d="M216.1,30.9C216.1,30.9,216.1,30.9,216.1,30.9
	C216.1,30.9,216.1,30.9,216.1,30.9C216.1,30.9,216.1,30.9,216.1,30.9C216.1,30.9,216.1,30.9,216.1,30.9L216.1,30.9z"/>
<polygon style="fill-rule:evenodd;clip-rule:evenodd;fill:#333333;" points="216.3,31.5 216.1,31.5 215.9,31.5 215.9,31.5 
	216.1,31.6 216.3,31.5 216.3,31.5 "/>
<polygon style="fill-rule:evenodd;clip-rule:evenodd;fill:#333333;" points="216.3,31.5 215.9,31.5 215.9,34.1 216.3,34.1 
	216.3,31.5 "/>
<polygon style="fill-rule:evenodd;clip-rule:evenodd;fill:#333333;" points="216.3,31.7 216.1,31.6 215.9,31.7 215.9,31.7 
	216.1,31.8 216.3,31.7 216.3,31.7 "/>
<polygon style="fill-rule:evenodd;clip-rule:evenodd;fill:#333333;" points="216.6,32.2 216.5,32.6 216.4,32.9 216.6,32.9 
	216.7,32.9 216.6,32.6 216.6,32.2 "/>
<path style="fill-rule:evenodd;clip-rule:evenodd;fill:#333333;" d="M216.6,32.3C216.5,32.3,216.5,32.4,216.6,32.3
	C216.5,32.4,216.5,32.4,216.6,32.3C216.6,32.4,216.6,32.4,216.6,32.3C216.6,32.4,216.6,32.3,216.6,32.3L216.6,32.3z"/>
<path style="fill-rule:evenodd;clip-rule:evenodd;fill:#333333;" d="M216.6,32.3C216.5,32.3,216.5,32.3,216.6,32.3
	C216.5,32.3,216.5,32.4,216.6,32.3C216.6,32.4,216.6,32.3,216.6,32.3C216.6,32.3,216.6,32.3,216.6,32.3L216.6,32.3z"/>
<path style="fill-rule:evenodd;clip-rule:evenodd;fill:#333333;" d="M216.6,32.2C216.6,32.2,216.5,32.2,216.6,32.2
	C216.5,32.3,216.6,32.3,216.6,32.2C216.6,32.3,216.6,32.3,216.6,32.2C216.6,32.2,216.6,32.2,216.6,32.2L216.6,32.2z"/>
<polygon style="fill-rule:evenodd;clip-rule:evenodd;fill:#333333;" points="216.8,32.9 216.6,32.8 216.4,32.9 216.4,32.9 216.6,33 
	216.8,32.9 216.8,32.9 "/>
<polygon style="fill-rule:evenodd;clip-rule:evenodd;fill:#333333;" points="216.7,32.9 216.4,32.9 216.4,34.5 216.7,34.5 
	216.7,32.9 "/>
<polygon style="fill-rule:evenodd;clip-rule:evenodd;fill:#333333;" points="216.8,33.1 216.6,33 216.4,33.1 216.4,33.1 216.6,33.1 
	216.8,33.1 216.8,33.1 "/>
<polygon style="fill-rule:evenodd;clip-rule:evenodd;fill:#333333;" points="217.2,33.6 217.1,34.1 217,34.6 217.2,34.6 217.4,34.6 
	217.3,34.1 217.2,33.6 "/>
<path style="fill-rule:evenodd;clip-rule:evenodd;fill:#333333;" d="M217.2,33.8C217.2,33.8,217.1,33.8,217.2,33.8
	C217.1,33.9,217.2,33.9,217.2,33.8C217.2,33.9,217.3,33.9,217.2,33.8C217.3,33.8,217.2,33.8,217.2,33.8L217.2,33.8z"/>
<path style="fill-rule:evenodd;clip-rule:evenodd;fill:#333333;" d="M217.2,33.7C217.2,33.7,217.1,33.7,217.2,33.7
	c-0.1,0.1,0,0.1,0,0.1C217.2,33.8,217.3,33.8,217.2,33.7C217.3,33.7,217.2,33.7,217.2,33.7L217.2,33.7z"/>
<path style="fill-rule:evenodd;clip-rule:evenodd;fill:#333333;" d="M217.2,33.7C217.2,33.7,217.2,33.7,217.2,33.7
	C217.2,33.7,217.2,33.7,217.2,33.7C217.2,33.7,217.2,33.7,217.2,33.7C217.2,33.7,217.2,33.7,217.2,33.7L217.2,33.7z"/>
<polygon style="fill-rule:evenodd;clip-rule:evenodd;fill:#333333;" points="217.5,34.6 217.2,34.6 216.9,34.6 216.9,34.6 
	217.2,34.7 217.5,34.6 217.5,34.6 "/>
<polygon style="fill-rule:evenodd;clip-rule:evenodd;fill:#333333;" points="217.4,34.6 217,34.6 217,48.4 217.4,48.4 217.4,34.6 
	"/>
<polygon style="fill-rule:evenodd;clip-rule:evenodd;fill:#333333;" points="217.5,34.9 217.2,34.8 216.9,34.9 216.9,34.9 217.2,35 
	217.5,34.9 217.5,34.9 "/>
<path style="fill-rule:evenodd;clip-rule:evenodd;fill:#333333;" d="M216.6,34.3c-0.2,0-0.4,0.2-0.4,0.4s0.2,0.4,0.4,0.4
	c0.2,0,0.4-0.2,0.4-0.4S216.8,34.3,216.6,34.3L216.6,34.3z"/>
<polygon style="fill-rule:evenodd;clip-rule:evenodd;fill:#333333;" points="216.3,32.2 216.1,32.2 216.1,32.4 216.3,32.3 
	216.3,32.2 "/>
<polygon style="fill-rule:evenodd;clip-rule:evenodd;fill:#333333;" points="216.8,33.8 216.6,33.8 216.6,34 216.8,33.9 216.8,33.8 
	"/>
<polygon style="fill-rule:evenodd;clip-rule:evenodd;fill:#333333;" points="214.3,31.7 216.1,31.7 216.1,34.1 214.3,34.1 
	214.3,31.7 "/>
<polygon style="fill-rule:evenodd;clip-rule:evenodd;fill:#333333;" points="214,33.5 216.5,33.5 216.5,36 214,36 214,33.5 "/>
<polygon style="fill-rule:evenodd;clip-rule:evenodd;fill:#333333;" points="213.2,34.8 217.2,34.8 217.2,48.4 213.2,48.4 
	213.2,34.8 "/>
<polygon style="fill-rule:evenodd;clip-rule:evenodd;fill:#333333;" points="213.3,34.8 216.4,34.8 216.4,48.4 213.3,48.4 
	213.3,34.8 "/>
<polygon style="fill-rule:evenodd;clip-rule:evenodd;fill:#333333;" points="217.4,43.5 217.4,43.5 217.6,43.7 217.6,43.8 
	217.4,43.8 217.4,43.5 "/>
<polygon style="fill-rule:evenodd;clip-rule:evenodd;fill:#333333;" points="217.4,36 217.4,36 217.6,36.1 217.6,36.2 217.4,36.3 
	217.4,36 "/>
<polygon style="fill-rule:evenodd;clip-rule:evenodd;fill:#333333;" points="217.5,36 217.5,35.9 217.4,35.9 217.4,36 217.4,36 
	217.4,36 217.5,36 217.5,36 217.5,36 "/>
<polygon style="fill-rule:evenodd;clip-rule:evenodd;fill:#333333;" points="213,36 213,36 212.9,36.1 212.9,36.2 213,36.3 213,36 
	"/>
<polygon style="fill-rule:evenodd;clip-rule:evenodd;fill:#333333;" points="212.9,36 212.9,35.9 213,35.9 213,36 213,36 213,36 
	212.9,36 212.9,36 212.9,36 "/>
<path style="fill-rule:evenodd;clip-rule:evenodd;fill:#333333;" d="M201.8,28.4c-0.1,0-0.2,0.1-0.2,0.2c0,0.1,0.1,0.2,0.2,0.2
	c0.1,0,0.2-0.1,0.2-0.2C202,28.5,201.9,28.4,201.8,28.4L201.8,28.4z"/>
<path style="fill-rule:evenodd;clip-rule:evenodd;fill:#333333;" d="M201.8,28.2C201.8,28.2,201.7,28.2,201.8,28.2
	C201.7,28.3,201.8,28.3,201.8,28.2C201.9,28.3,201.9,28.3,201.8,28.2C201.9,28.2,201.9,28.2,201.8,28.2L201.8,28.2z"/>
<path style="fill-rule:evenodd;clip-rule:evenodd;fill:#333333;" d="M201.8,28.3c-0.1,0-0.1,0-0.1,0S201.8,28.4,201.8,28.3
	c0.1,0.1,0.1,0.1,0.1,0S201.9,28.3,201.8,28.3L201.8,28.3z"/>
<polygon style="fill-rule:evenodd;clip-rule:evenodd;fill:#333333;" points="201.8,27 201.8,27.8 201.8,28.7 201.8,28.7 201.9,28.7 
	201.9,27.8 201.8,27 "/>
<path style="fill-rule:evenodd;clip-rule:evenodd;fill:#333333;" d="M201.8,27.4C201.8,27.4,201.8,27.4,201.8,27.4
	C201.8,27.4,201.8,27.4,201.8,27.4C201.9,27.4,201.9,27.4,201.8,27.4C201.9,27.4,201.9,27.4,201.8,27.4L201.8,27.4z"/>
<path style="fill-rule:evenodd;clip-rule:evenodd;fill:#333333;" d="M201.8,27.9c-0.1,0-0.1,0-0.1,0S201.8,28,201.8,27.9
	c0.1,0,0.1,0,0.1,0S201.9,27.9,201.8,27.9L201.8,27.9z"/>
<path style="fill-rule:evenodd;clip-rule:evenodd;fill:#333333;" d="M201.8,27.9C201.8,27.9,201.8,28,201.8,27.9
	c-0.1,0.1,0,0.1,0,0.1C201.9,28,201.9,28,201.8,27.9C201.9,28,201.9,27.9,201.8,27.9L201.8,27.9z"/>
<polygon style="fill-rule:evenodd;clip-rule:evenodd;fill:#333333;" points="201.7,28.9 201.5,30 201.1,31.7 201.8,31.7 202.6,31.7 
	202.2,30 202,28.9 201.7,28.9 "/>
<polygon style="fill-rule:evenodd;clip-rule:evenodd;fill:#333333;" points="201.9,28.7 201.8,28.7 201.8,28.9 201.9,28.9 
	201.9,28.7 "/>
<polygon style="fill-rule:evenodd;clip-rule:evenodd;fill:#333333;" points="202.1,28.9 201.8,28.8 201.6,28.9 201.6,28.9 201.8,29 
	202.1,28.9 202.1,28.9 "/>
<polygon style="fill-rule:evenodd;clip-rule:evenodd;fill:#333333;" points="202.7,30.8 202.6,31.2 202.6,31.5 202.7,31.5 
	202.9,31.5 202.8,31.2 202.7,30.8 "/>
<path style="fill-rule:evenodd;clip-rule:evenodd;fill:#333333;" d="M202.7,31C202.7,31,202.7,31,202.7,31
	C202.7,31,202.7,31,202.7,31C202.7,31,202.8,31,202.7,31C202.8,31,202.7,31,202.7,31L202.7,31z"/>
<path style="fill-rule:evenodd;clip-rule:evenodd;fill:#333333;" d="M202.7,30.9C202.7,30.9,202.7,30.9,202.7,30.9
	C202.7,31,202.7,31,202.7,30.9C202.7,31,202.8,31,202.7,30.9C202.8,30.9,202.7,30.9,202.7,30.9L202.7,30.9z"/>
<path style="fill-rule:evenodd;clip-rule:evenodd;fill:#333333;" d="M202.7,30.9C202.7,30.9,202.7,30.9,202.7,30.9
	C202.7,30.9,202.7,30.9,202.7,30.9C202.7,30.9,202.7,30.9,202.7,30.9C202.7,30.9,202.7,30.9,202.7,30.9L202.7,30.9z"/>
<polygon style="fill-rule:evenodd;clip-rule:evenodd;fill:#333333;" points="202.9,31.5 202.7,31.5 202.5,31.5 202.5,31.5 
	202.7,31.6 202.9,31.5 202.9,31.5 "/>
<polygon style="fill-rule:evenodd;clip-rule:evenodd;fill:#333333;" points="202.9,31.5 202.6,31.5 202.6,34.1 202.9,34.1 
	202.9,31.5 "/>
<polygon style="fill-rule:evenodd;clip-rule:evenodd;fill:#333333;" points="202.9,31.7 202.7,31.6 202.5,31.7 202.5,31.7 
	202.7,31.8 202.9,31.7 202.9,31.7 "/>
<polygon style="fill-rule:evenodd;clip-rule:evenodd;fill:#333333;" points="203.2,32.2 203.1,32.6 203,32.9 203.2,32.9 203.4,32.9 
	203.3,32.6 203.2,32.2 "/>
<path style="fill-rule:evenodd;clip-rule:evenodd;fill:#333333;" d="M203.2,32.3C203.2,32.3,203.1,32.4,203.2,32.3
	C203.1,32.4,203.2,32.4,203.2,32.3C203.2,32.4,203.2,32.4,203.2,32.3C203.2,32.4,203.2,32.3,203.2,32.3L203.2,32.3z"/>
<path style="fill-rule:evenodd;clip-rule:evenodd;fill:#333333;" d="M203.2,32.3C203.2,32.3,203.2,32.3,203.2,32.3
	C203.2,32.3,203.2,32.4,203.2,32.3C203.2,32.4,203.2,32.3,203.2,32.3C203.2,32.3,203.2,32.3,203.2,32.3L203.2,32.3z"/>
<path style="fill-rule:evenodd;clip-rule:evenodd;fill:#333333;" d="M203.2,32.2C203.2,32.2,203.2,32.2,203.2,32.2
	C203.2,32.3,203.2,32.3,203.2,32.2C203.2,32.3,203.2,32.3,203.2,32.2C203.2,32.2,203.2,32.2,203.2,32.2L203.2,32.2z"/>
<polygon style="fill-rule:evenodd;clip-rule:evenodd;fill:#333333;" points="203.4,32.9 203.2,32.8 203,32.9 203,32.9 203.2,33 
	203.4,32.9 203.4,32.9 "/>
<polygon style="fill-rule:evenodd;clip-rule:evenodd;fill:#333333;" points="203.4,32.9 203,32.9 203,34.5 203.4,34.5 203.4,32.9 
	"/>
<polygon style="fill-rule:evenodd;clip-rule:evenodd;fill:#333333;" points="203.4,33.1 203.2,33 203,33.1 203,33.1 203.2,33.1 
	203.4,33.1 203.4,33.1 "/>
<polygon style="fill-rule:evenodd;clip-rule:evenodd;fill:#333333;" points="203.8,33.6 203.7,34.1 203.6,34.6 203.8,34.6 
	204.1,34.6 203.9,34.1 203.8,33.6 "/>
<path style="fill-rule:evenodd;clip-rule:evenodd;fill:#333333;" d="M203.8,33.8C203.8,33.8,203.8,33.8,203.8,33.8
	C203.8,33.9,203.8,33.9,203.8,33.8C203.9,33.9,203.9,33.9,203.8,33.8C203.9,33.8,203.9,33.8,203.8,33.8L203.8,33.8z"/>
<path style="fill-rule:evenodd;clip-rule:evenodd;fill:#333333;" d="M203.8,33.7C203.8,33.7,203.8,33.7,203.8,33.7
	c-0.1,0.1,0,0.1,0,0.1S203.9,33.8,203.8,33.7C203.9,33.7,203.9,33.7,203.8,33.7L203.8,33.7z"/>
<path style="fill-rule:evenodd;clip-rule:evenodd;fill:#333333;" d="M203.8,33.7C203.8,33.7,203.8,33.7,203.8,33.7
	C203.8,33.7,203.8,33.7,203.8,33.7C203.8,33.7,203.9,33.7,203.8,33.7C203.9,33.7,203.8,33.7,203.8,33.7L203.8,33.7z"/>
<polygon style="fill-rule:evenodd;clip-rule:evenodd;fill:#333333;" points="204.1,34.6 203.8,34.6 203.6,34.6 203.6,34.6 
	203.8,34.7 204.1,34.6 204.1,34.6 "/>
<polygon style="fill-rule:evenodd;clip-rule:evenodd;fill:#333333;" points="204.1,34.6 203.6,34.6 203.6,38.3 204.1,38.3 
	204.1,34.6 "/>
<polygon style="fill-rule:evenodd;clip-rule:evenodd;fill:#333333;" points="204.1,34.9 203.8,34.8 203.6,34.9 203.6,34.9 203.8,35 
	204.1,34.9 204.1,34.9 "/>
<path style="fill-rule:evenodd;clip-rule:evenodd;fill:#333333;" d="M203.2,34.3c-0.2,0-0.4,0.2-0.4,0.4s0.2,0.4,0.4,0.4
	s0.4-0.2,0.4-0.4S203.5,34.3,203.2,34.3L203.2,34.3z"/>
<polygon style="fill-rule:evenodd;clip-rule:evenodd;fill:#333333;" points="202.9,32.2 202.8,32.2 202.8,32.4 202.9,32.3 
	202.9,32.2 "/>
<polygon style="fill-rule:evenodd;clip-rule:evenodd;fill:#333333;" points="203.4,33.8 203.2,33.8 203.2,34 203.4,33.9 203.4,33.8 
	"/>
<polygon style="fill-rule:evenodd;clip-rule:evenodd;fill:#333333;" points="201,30.8 201,31.2 201.1,31.5 201,31.5 200.8,31.5 
	200.9,31.2 201,30.8 "/>
<path style="fill-rule:evenodd;clip-rule:evenodd;fill:#333333;" d="M201,31C201,31,201,31,201,31C201,31,201,31,201,31
	C200.9,31,200.9,31,201,31C200.9,31,200.9,31,201,31L201,31z"/>
<path style="fill-rule:evenodd;clip-rule:evenodd;fill:#333333;" d="M201,30.9C201,30.9,201,30.9,201,30.9C201,31,201,31,201,30.9
	C200.9,31,200.9,31,201,30.9C200.9,30.9,200.9,30.9,201,30.9L201,30.9z"/>
<path style="fill-rule:evenodd;clip-rule:evenodd;fill:#333333;" d="M201,30.9C201,30.9,201,30.9,201,30.9
	C201,30.9,201,30.9,201,30.9C200.9,30.9,200.9,30.9,201,30.9C200.9,30.9,200.9,30.9,201,30.9L201,30.9z"/>
<polygon style="fill-rule:evenodd;clip-rule:evenodd;fill:#333333;" points="200.8,31.5 201,31.5 201.1,31.5 201.1,31.5 201,31.6 
	200.8,31.5 200.8,31.5 "/>
<polygon style="fill-rule:evenodd;clip-rule:evenodd;fill:#333333;" points="200.8,31.5 201.1,31.5 201.1,34.1 200.8,34.1 
	200.8,31.5 "/>
<polygon style="fill-rule:evenodd;clip-rule:evenodd;fill:#333333;" points="200.8,31.7 201,31.6 201.1,31.7 201.1,31.7 201,31.8 
	200.8,31.7 200.8,31.7 "/>
<polygon style="fill-rule:evenodd;clip-rule:evenodd;fill:#333333;" points="200.5,32.2 200.6,32.6 200.6,32.9 200.5,32.9 
	200.3,32.9 200.4,32.6 200.5,32.2 "/>
<path style="fill-rule:evenodd;clip-rule:evenodd;fill:#333333;" d="M200.5,32.3C200.5,32.3,200.5,32.4,200.5,32.3
	C200.5,32.4,200.5,32.4,200.5,32.3C200.5,32.4,200.4,32.4,200.5,32.3C200.4,32.4,200.5,32.3,200.5,32.3L200.5,32.3z"/>
<path style="fill-rule:evenodd;clip-rule:evenodd;fill:#333333;" d="M200.5,32.3C200.5,32.3,200.5,32.3,200.5,32.3
	C200.5,32.3,200.5,32.4,200.5,32.3C200.5,32.4,200.4,32.3,200.5,32.3C200.4,32.3,200.5,32.3,200.5,32.3L200.5,32.3z"/>
<path style="fill-rule:evenodd;clip-rule:evenodd;fill:#333333;" d="M200.5,32.2C200.5,32.2,200.5,32.2,200.5,32.2
	C200.5,32.3,200.5,32.3,200.5,32.2C200.5,32.3,200.5,32.3,200.5,32.2C200.5,32.2,200.5,32.2,200.5,32.2L200.5,32.2z"/>
<polygon style="fill-rule:evenodd;clip-rule:evenodd;fill:#333333;" points="200.3,32.9 200.5,32.8 200.7,32.9 200.7,32.9 200.5,33 
	200.3,32.9 200.3,32.9 "/>
<polygon style="fill-rule:evenodd;clip-rule:evenodd;fill:#333333;" points="200.3,32.9 200.6,32.9 200.6,34.5 200.3,34.5 
	200.3,32.9 "/>
<polygon style="fill-rule:evenodd;clip-rule:evenodd;fill:#333333;" points="200.3,33.1 200.5,33 200.7,33.1 200.7,33.1 200.5,33.1 
	200.3,33.1 200.3,33.1 "/>
<polygon style="fill-rule:evenodd;clip-rule:evenodd;fill:#333333;" points="199.8,33.6 200,34.1 200.1,34.6 199.8,34.6 199.6,34.6 
	199.7,34.1 199.8,33.6 "/>
<path style="fill-rule:evenodd;clip-rule:evenodd;fill:#333333;" d="M199.8,33.8C199.9,33.8,199.9,33.8,199.8,33.8
	C199.9,33.9,199.9,33.9,199.8,33.8C199.8,33.9,199.8,33.9,199.8,33.8C199.8,33.8,199.8,33.8,199.8,33.8L199.8,33.8z"/>
<path style="fill-rule:evenodd;clip-rule:evenodd;fill:#333333;" d="M199.8,33.7C199.9,33.7,199.9,33.7,199.8,33.7
	c0.1,0.1,0,0.1,0,0.1C199.8,33.8,199.8,33.8,199.8,33.7C199.8,33.7,199.8,33.7,199.8,33.7L199.8,33.7z"/>
<path style="fill-rule:evenodd;clip-rule:evenodd;fill:#333333;" d="M199.8,33.7C199.9,33.7,199.9,33.7,199.8,33.7
	C199.9,33.7,199.9,33.7,199.8,33.7C199.8,33.7,199.8,33.7,199.8,33.7C199.8,33.7,199.8,33.7,199.8,33.7L199.8,33.7z"/>
<polygon style="fill-rule:evenodd;clip-rule:evenodd;fill:#333333;" points="199.6,34.6 199.8,34.6 200.1,34.6 200.1,34.6 
	199.8,34.7 199.6,34.6 199.6,34.6 "/>
<polygon style="fill-rule:evenodd;clip-rule:evenodd;fill:#333333;" points="199.6,34.6 200.1,34.6 200.1,48.4 199.6,48.4 
	199.6,34.6 "/>
<polygon style="fill-rule:evenodd;clip-rule:evenodd;fill:#333333;" points="199.6,34.9 199.8,34.8 200.1,34.9 200.1,34.9 199.8,35 
	199.6,34.9 199.6,34.9 "/>
<path style="fill-rule:evenodd;clip-rule:evenodd;fill:#333333;" d="M200.5,34.3c0.2,0,0.4,0.2,0.4,0.4s-0.2,0.4-0.4,0.4
	c-0.2,0-0.4-0.2-0.4-0.4S200.2,34.3,200.5,34.3L200.5,34.3z"/>
<polygon style="fill-rule:evenodd;clip-rule:evenodd;fill:#333333;" points="200.8,32.2 200.9,32.2 200.9,32.4 200.8,32.3 
	200.8,32.2 "/>
<polygon style="fill-rule:evenodd;clip-rule:evenodd;fill:#333333;" points="200.3,33.8 200.4,33.8 200.4,34 200.3,33.9 200.3,33.8 
	"/>
<polygon style="fill-rule:evenodd;clip-rule:evenodd;fill:#333333;" points="202.7,31.7 201,31.7 201,34.1 202.7,34.1 202.7,31.7 
	"/>
<polygon style="fill-rule:evenodd;clip-rule:evenodd;fill:#333333;" points="203.1,33.5 200.6,33.5 200.6,36 203.1,36 203.1,33.5 
	"/>
<polygon style="fill-rule:evenodd;clip-rule:evenodd;fill:#333333;" points="203.9,34.8 199.8,34.8 199.8,48.4 203.9,48.4 
	203.9,34.8 "/>
<polygon style="fill-rule:evenodd;clip-rule:evenodd;fill:#333333;" points="203.7,34.8 200.6,34.8 200.6,48.4 203.7,48.4 
	203.7,34.8 "/>
<polygon style="fill-rule:evenodd;clip-rule:evenodd;fill:#333333;" points="199.7,43.5 199.6,43.5 199.5,43.7 199.5,43.8 
	199.7,43.8 199.7,43.5 "/>
<polygon style="fill-rule:evenodd;clip-rule:evenodd;fill:#333333;" points="199.7,36 199.6,36 199.5,36.1 199.5,36.2 199.7,36.3 
	199.7,36 "/>
<polygon style="fill-rule:evenodd;clip-rule:evenodd;fill:#333333;" points="199.5,36 199.6,35.9 199.6,35.9 199.6,36 199.6,36 
	199.6,36 199.6,36 199.5,36 199.5,36 "/>
<polygon style="fill-rule:evenodd;clip-rule:evenodd;fill:#333333;" points="204,36 204.1,36 204.2,36.1 204.2,36.2 204,36.3 
	204,36 "/>
<polygon style="fill-rule:evenodd;clip-rule:evenodd;fill:#333333;" points="204.1,36 204.1,35.9 204,35.9 204,36 204,36 204,36 
	204.1,36 204.1,36 204.1,36 "/>
<polygon style="fill-rule:evenodd;clip-rule:evenodd;fill:#333333;" points="210.5,37.5 211.1,37.5 211.1,37.7 210.5,37.7 
	210.5,37.5 "/>
<polygon style="fill-rule:evenodd;clip-rule:evenodd;fill:#333333;" points="210.5,37.7 211.1,37.7 211.1,37.7 210.5,37.7 
	210.5,37.7 "/>
<polygon style="fill-rule:evenodd;clip-rule:evenodd;fill:#333333;" points="210.5,37.7 211.1,37.7 211.1,37.8 211,37.8 210.6,37.8 
	210.5,37.8 210.5,37.7 "/>
<polygon style="fill-rule:evenodd;clip-rule:evenodd;fill:#333333;" points="210.6,37.7 211,37.7 211,38 210.6,38 210.6,37.7 "/>
<polygon style="fill-rule:evenodd;clip-rule:evenodd;fill:#333333;" points="210.5,38 211.1,38 211.1,38.2 210.5,38.2 210.5,38 "/>
<polygon style="fill-rule:evenodd;clip-rule:evenodd;fill:#333333;" points="210.5,38 210.6,37.9 211,37.9 211.1,38 211.1,38 
	211,38 210.6,38 210.5,38 210.5,38 "/>
<polygon style="fill-rule:evenodd;clip-rule:evenodd;fill:#333333;" points="210.5,37.5 211.1,37.5 211.1,37.5 210.5,37.5 
	210.5,37.5 "/>
<path style="fill-rule:evenodd;clip-rule:evenodd;fill:#333333;" d="M210.8,37.2c0.1,0,0.2,0.1,0.2,0.2c0,0.1-0.1,0.2-0.2,0.2
	c-0.1,0-0.2-0.1-0.2-0.2C210.5,37.3,210.6,37.2,210.8,37.2L210.8,37.2z"/>
<path style="fill-rule:evenodd;clip-rule:evenodd;fill:#333333;" d="M210.9,37.2c0.1,0,0.2,0.1,0.2,0.2c0,0.1-0.1,0.2-0.2,0.2
	s-0.2-0.1-0.2-0.2C210.7,37.3,210.8,37.2,210.9,37.2L210.9,37.2z"/>
<polygon style="fill-rule:evenodd;clip-rule:evenodd;fill:#333333;" points="210.7,37.2 210.9,37.2 210.9,37.4 210.7,37.4 
	210.7,37.2 "/>
<polygon style="fill-rule:evenodd;clip-rule:evenodd;fill:#333333;" points="209.4,37.5 209.9,37.5 209.9,37.7 209.4,37.7 
	209.4,37.5 "/>
<polygon style="fill-rule:evenodd;clip-rule:evenodd;fill:#333333;" points="209.4,37.7 210,37.7 210,37.7 209.4,37.7 209.4,37.7 
	"/>
<polygon style="fill-rule:evenodd;clip-rule:evenodd;fill:#333333;" points="209.4,37.7 209.9,37.7 209.9,37.8 209.9,37.8 
	209.5,37.8 209.4,37.8 209.4,37.7 "/>
<polygon style="fill-rule:evenodd;clip-rule:evenodd;fill:#333333;" points="209.5,37.7 209.9,37.7 209.9,38 209.5,38 209.5,37.7 
	"/>
<polygon style="fill-rule:evenodd;clip-rule:evenodd;fill:#333333;" points="209.4,38 210,38 210,38.2 209.4,38.2 209.4,38 "/>
<polygon style="fill-rule:evenodd;clip-rule:evenodd;fill:#333333;" points="209.4,38 209.4,37.9 209.9,37.9 210,38 210,38 
	209.9,38 209.4,38 209.4,38 209.4,38 "/>
<polygon style="fill-rule:evenodd;clip-rule:evenodd;fill:#333333;" points="209.4,37.5 210,37.5 210,37.5 209.4,37.5 209.4,37.5 
	"/>
<path style="fill-rule:evenodd;clip-rule:evenodd;fill:#333333;" d="M209.6,37.2c0.1,0,0.2,0.1,0.2,0.2c0,0.1-0.1,0.2-0.2,0.2
	s-0.2-0.1-0.2-0.2C209.4,37.3,209.5,37.2,209.6,37.2L209.6,37.2z"/>
<path style="fill-rule:evenodd;clip-rule:evenodd;fill:#333333;" d="M209.7,37.2c0.1,0,0.2,0.1,0.2,0.2c0,0.1-0.1,0.2-0.2,0.2
	c-0.1,0-0.2-0.1-0.2-0.2C209.5,37.3,209.6,37.2,209.7,37.2L209.7,37.2z"/>
<polygon style="fill-rule:evenodd;clip-rule:evenodd;fill:#333333;" points="209.6,37.2 209.8,37.2 209.8,37.4 209.6,37.4 
	209.6,37.2 "/>
<polygon style="fill-rule:evenodd;clip-rule:evenodd;fill:#333333;" points="208.3,37.5 208.8,37.5 208.8,37.7 208.3,37.7 
	208.3,37.5 "/>
<polygon style="fill-rule:evenodd;clip-rule:evenodd;fill:#333333;" points="208.3,37.7 208.8,37.7 208.8,37.7 208.3,37.7 
	208.3,37.7 "/>
<polygon style="fill-rule:evenodd;clip-rule:evenodd;fill:#333333;" points="208.3,37.7 208.8,37.7 208.8,37.8 208.8,37.8 
	208.3,37.8 208.3,37.8 208.3,37.7 "/>
<polygon style="fill-rule:evenodd;clip-rule:evenodd;fill:#333333;" points="208.3,37.7 208.8,37.7 208.8,38 208.3,38 208.3,37.7 
	"/>
<polygon style="fill-rule:evenodd;clip-rule:evenodd;fill:#333333;" points="208.3,38 208.8,38 208.8,38.2 208.3,38.2 208.3,38 "/>
<polygon style="fill-rule:evenodd;clip-rule:evenodd;fill:#333333;" points="208.3,38 208.3,37.9 208.8,37.9 208.8,38 208.8,38 
	208.8,38 208.3,38 208.3,38 208.3,38 "/>
<polygon style="fill-rule:evenodd;clip-rule:evenodd;fill:#333333;" points="208.3,37.5 208.8,37.5 208.8,37.5 208.3,37.5 
	208.3,37.5 "/>
<path style="fill-rule:evenodd;clip-rule:evenodd;fill:#333333;" d="M208.5,37.2c0.1,0,0.2,0.1,0.2,0.2c0,0.1-0.1,0.2-0.2,0.2
	s-0.2-0.1-0.2-0.2C208.3,37.3,208.4,37.2,208.5,37.2L208.5,37.2z"/>
<path style="fill-rule:evenodd;clip-rule:evenodd;fill:#333333;" d="M208.6,37.2c0.1,0,0.2,0.1,0.2,0.2c0,0.1-0.1,0.2-0.2,0.2
	s-0.2-0.1-0.2-0.2C208.4,37.3,208.5,37.2,208.6,37.2L208.6,37.2z"/>
<polygon style="fill-rule:evenodd;clip-rule:evenodd;fill:#333333;" points="208.4,37.2 208.6,37.2 208.6,37.4 208.4,37.4 
	208.4,37.2 "/>
<polygon style="fill-rule:evenodd;clip-rule:evenodd;fill:#333333;" points="207.2,37.5 207.7,37.5 207.7,37.7 207.2,37.7 
	207.2,37.5 "/>
<polygon style="fill-rule:evenodd;clip-rule:evenodd;fill:#333333;" points="207.1,37.7 207.7,37.7 207.7,37.7 207.1,37.7 
	207.1,37.7 "/>
<polygon style="fill-rule:evenodd;clip-rule:evenodd;fill:#333333;" points="207.1,37.7 207.7,37.7 207.7,37.8 207.6,37.8 
	207.2,37.8 207.1,37.8 207.1,37.7 "/>
<polygon style="fill-rule:evenodd;clip-rule:evenodd;fill:#333333;" points="207.2,37.7 207.6,37.7 207.6,38 207.2,38 207.2,37.7 
	"/>
<polygon style="fill-rule:evenodd;clip-rule:evenodd;fill:#333333;" points="207.1,38 207.7,38 207.7,38.2 207.1,38.2 207.1,38 "/>
<polygon style="fill-rule:evenodd;clip-rule:evenodd;fill:#333333;" points="207.1,38 207.2,37.9 207.6,37.9 207.7,38 207.7,38 
	207.6,38 207.2,38 207.1,38 207.1,38 "/>
<polygon style="fill-rule:evenodd;clip-rule:evenodd;fill:#333333;" points="207.1,37.5 207.7,37.5 207.7,37.5 207.1,37.5 
	207.1,37.5 "/>
<path style="fill-rule:evenodd;clip-rule:evenodd;fill:#333333;" d="M207.4,37.2c0.1,0,0.2,0.1,0.2,0.2c0,0.1-0.1,0.2-0.2,0.2
	c-0.1,0-0.2-0.1-0.2-0.2C207.2,37.3,207.2,37.2,207.4,37.2L207.4,37.2z"/>
<path style="fill-rule:evenodd;clip-rule:evenodd;fill:#333333;" d="M207.5,37.2c0.1,0,0.2,0.1,0.2,0.2c0,0.1-0.1,0.2-0.2,0.2
	s-0.2-0.1-0.2-0.2C207.3,37.3,207.4,37.2,207.5,37.2L207.5,37.2z"/>
<polygon style="fill-rule:evenodd;clip-rule:evenodd;fill:#333333;" points="207.3,37.2 207.5,37.2 207.5,37.4 207.3,37.4 
	207.3,37.2 "/>
<polygon style="fill-rule:evenodd;clip-rule:evenodd;fill:#333333;" points="206,37.5 206.6,37.5 206.6,37.7 206,37.7 206,37.5 "/>
<polygon style="fill-rule:evenodd;clip-rule:evenodd;fill:#333333;" points="206,37.7 206.6,37.7 206.6,37.7 206,37.7 206,37.7 "/>
<polygon style="fill-rule:evenodd;clip-rule:evenodd;fill:#333333;" points="206,37.7 206.6,37.7 206.6,37.8 206.5,37.8 206.1,37.8 
	206,37.8 206,37.7 "/>
<polygon style="fill-rule:evenodd;clip-rule:evenodd;fill:#333333;" points="206.1,37.7 206.5,37.7 206.5,38 206.1,38 206.1,37.7 
	"/>
<polygon style="fill-rule:evenodd;clip-rule:evenodd;fill:#333333;" points="206,38 206.6,38 206.6,38.2 206,38.2 206,38 "/>
<polygon style="fill-rule:evenodd;clip-rule:evenodd;fill:#333333;" points="206,38 206.1,37.9 206.5,37.9 206.6,38 206.6,38 
	206.5,38 206.1,38 206,38 206,38 "/>
<polygon style="fill-rule:evenodd;clip-rule:evenodd;fill:#333333;" points="206,37.5 206.6,37.5 206.6,37.5 206,37.5 206,37.5 "/>
<path style="fill-rule:evenodd;clip-rule:evenodd;fill:#333333;" d="M206.2,37.2c0.1,0,0.2,0.1,0.2,0.2c0,0.1-0.1,0.2-0.2,0.2
	s-0.2-0.1-0.2-0.2C206,37.3,206.1,37.2,206.2,37.2L206.2,37.2z"/>
<path style="fill-rule:evenodd;clip-rule:evenodd;fill:#333333;" d="M206.3,37.2c0.1,0,0.2,0.1,0.2,0.2c0,0.1-0.1,0.2-0.2,0.2
	s-0.2-0.1-0.2-0.2C206.1,37.3,206.2,37.2,206.3,37.2L206.3,37.2z"/>
<polygon style="fill-rule:evenodd;clip-rule:evenodd;fill:#333333;" points="206.2,37.2 206.4,37.2 206.4,37.4 206.2,37.4 
	206.2,37.2 "/>
<polygon style="fill-rule:evenodd;clip-rule:evenodd;fill:#333333;" points="204.9,37.5 205.4,37.5 205.4,37.7 204.9,37.7 
	204.9,37.5 "/>
<polygon style="fill-rule:evenodd;clip-rule:evenodd;fill:#333333;" points="204.9,37.7 205.4,37.7 205.4,37.7 204.9,37.7 
	204.9,37.7 "/>
<polygon style="fill-rule:evenodd;clip-rule:evenodd;fill:#333333;" points="204.9,37.7 205.4,37.7 205.4,37.8 205.4,37.8 
	204.9,37.8 204.9,37.8 204.9,37.7 "/>
<polygon style="fill-rule:evenodd;clip-rule:evenodd;fill:#333333;" points="204.9,37.7 205.4,37.7 205.4,38 204.9,38 204.9,37.7 
	"/>
<polygon style="fill-rule:evenodd;clip-rule:evenodd;fill:#333333;" points="204.9,38 205.4,38 205.4,38.2 204.9,38.2 204.9,38 "/>
<polygon style="fill-rule:evenodd;clip-rule:evenodd;fill:#333333;" points="204.9,38 204.9,37.9 205.4,37.9 205.4,38 205.4,38 
	205.4,38 204.9,38 204.9,38 204.9,38 "/>
<polygon style="fill-rule:evenodd;clip-rule:evenodd;fill:#333333;" points="204.9,37.5 205.4,37.5 205.4,37.5 204.9,37.5 
	204.9,37.5 "/>
<path style="fill-rule:evenodd;clip-rule:evenodd;fill:#333333;" d="M205.1,37.2c0.1,0,0.2,0.1,0.2,0.2c0,0.1-0.1,0.2-0.2,0.2
	s-0.2-0.1-0.2-0.2C204.9,37.3,205,37.2,205.1,37.2L205.1,37.2z"/>
<path style="fill-rule:evenodd;clip-rule:evenodd;fill:#333333;" d="M205.2,37.2c0.1,0,0.2,0.1,0.2,0.2c0,0.1-0.1,0.2-0.2,0.2
	c-0.1,0-0.2-0.1-0.2-0.2C205,37.3,205.1,37.2,205.2,37.2L205.2,37.2z"/>
<polygon style="fill-rule:evenodd;clip-rule:evenodd;fill:#333333;" points="205.1,37.2 205.3,37.2 205.3,37.4 205.1,37.4 
	205.1,37.2 "/>
<polygon style="fill-rule:evenodd;clip-rule:evenodd;fill:#333333;" points="203.8,37.5 204.3,37.5 204.3,37.7 203.8,37.7 
	203.8,37.5 "/>
<polygon style="fill-rule:evenodd;clip-rule:evenodd;fill:#333333;" points="203.7,37.7 204.3,37.7 204.3,37.7 203.7,37.7 
	203.7,37.7 "/>
<polygon style="fill-rule:evenodd;clip-rule:evenodd;fill:#333333;" points="203.8,37.7 204.3,37.7 204.3,37.8 204.3,37.8 
	203.8,37.8 203.8,37.8 203.8,37.7 "/>
<polygon style="fill-rule:evenodd;clip-rule:evenodd;fill:#333333;" points="203.8,37.7 204.2,37.7 204.2,38 203.8,38 203.8,37.7 
	"/>
<polygon style="fill-rule:evenodd;clip-rule:evenodd;fill:#333333;" points="203.8,38 204.3,38 204.3,38.2 203.8,38.2 203.8,38 "/>
<polygon style="fill-rule:evenodd;clip-rule:evenodd;fill:#333333;" points="203.7,38 203.8,37.9 204.3,37.9 204.3,38 204.3,38 
	204.3,38 203.8,38 203.7,38 203.7,38 "/>
<polygon style="fill-rule:evenodd;clip-rule:evenodd;fill:#333333;" points="203.7,37.5 204.3,37.5 204.3,37.5 203.7,37.5 
	203.7,37.5 "/>
<path style="fill-rule:evenodd;clip-rule:evenodd;fill:#333333;" d="M204,37.2c0.1,0,0.2,0.1,0.2,0.2c0,0.1-0.1,0.2-0.2,0.2
	s-0.2-0.1-0.2-0.2C203.8,37.3,203.9,37.2,204,37.2L204,37.2z"/>
<path style="fill-rule:evenodd;clip-rule:evenodd;fill:#333333;" d="M204.1,37.2c0.1,0,0.2,0.1,0.2,0.2c0,0.1-0.1,0.2-0.2,0.2
	s-0.2-0.1-0.2-0.2C203.9,37.3,204,37.2,204.1,37.2L204.1,37.2z"/>
<polygon style="fill-rule:evenodd;clip-rule:evenodd;fill:#333333;" points="203.9,37.2 204.1,37.2 204.1,37.4 203.9,37.4 
	203.9,37.2 "/>
<polygon style="fill-rule:evenodd;clip-rule:evenodd;fill:#333333;" points="204.7,38 204.7,38.2 204.5,38.2 204.5,38 204.4,38 
	204.4,38 204.5,37.9 204.7,37.9 204.7,38 204.7,38 204.7,38 "/>
<polygon style="fill-rule:evenodd;clip-rule:evenodd;fill:#333333;" points="205.9,38 205.9,38.2 205.6,38.2 205.6,38 205.6,38 
	205.6,38 205.6,37.9 205.8,37.9 205.9,38 205.9,38 205.9,38 "/>
<polygon style="fill-rule:evenodd;clip-rule:evenodd;fill:#333333;" points="207,38 207,38.2 206.7,38.2 206.7,38 206.7,38 
	206.7,38 206.8,37.9 206.9,37.9 207,38 207,38 207,38 "/>
<polygon style="fill-rule:evenodd;clip-rule:evenodd;fill:#333333;" points="208.1,38 208.1,38.2 207.8,38.2 207.8,38 207.8,38 
	207.8,38 207.9,37.9 208.1,37.9 208.1,38 208.1,38 208.1,38 "/>
<polygon style="fill-rule:evenodd;clip-rule:evenodd;fill:#333333;" points="209.3,38 209.3,38.2 209,38.2 209,38 209,38 209,38 
	209,37.9 209.2,37.9 209.3,38 209.3,38 209.3,38 "/>
<polygon style="fill-rule:evenodd;clip-rule:evenodd;fill:#333333;" points="210.4,38 210.4,38.2 210.1,38.2 210.1,38 210.1,38 
	210.1,38 210.2,37.9 210.3,37.9 210.4,38 210.4,38 210.4,38 "/>
<path style="fill-rule:evenodd;clip-rule:evenodd;fill:#333333;" d="M212.1,30.5c0.1,0,0.1,0.1,0.1,0.1c0,0.1-0.1,0.1-0.1,0.1
	c-0.1,0-0.1-0.1-0.1-0.1C212,30.6,212.1,30.5,212.1,30.5L212.1,30.5z"/>
<path style="fill-rule:evenodd;clip-rule:evenodd;fill:#333333;" d="M212.1,30.4C212.2,30.4,212.2,30.4,212.1,30.4
	C212.2,30.4,212.2,30.4,212.1,30.4C212.1,30.4,212,30.4,212.1,30.4C212,30.4,212.1,30.4,212.1,30.4L212.1,30.4z"/>
<path style="fill-rule:evenodd;clip-rule:evenodd;fill:#333333;" d="M212.1,30.5c0.1,0,0.1,0,0.1,0S212.2,30.5,212.1,30.5
	c-0.1,0.1-0.1,0-0.1,0S212.1,30.5,212.1,30.5L212.1,30.5z"/>
<polygon style="fill-rule:evenodd;clip-rule:evenodd;fill:#333333;" points="212.1,29.3 212.2,30 212.2,30.8 212.1,30.8 212.1,30.8 
	212.1,30 212.1,29.3 "/>
<path style="fill-rule:evenodd;clip-rule:evenodd;fill:#333333;" d="M212.1,29.6C212.2,29.6,212.2,29.6,212.1,29.6
	C212.2,29.7,212.2,29.7,212.1,29.6C212.1,29.7,212.1,29.7,212.1,29.6C212.1,29.6,212.1,29.6,212.1,29.6L212.1,29.6z"/>
<path style="fill-rule:evenodd;clip-rule:evenodd;fill:#333333;" d="M212.1,30.1c0.1,0,0.1,0,0.1,0S212.2,30.2,212.1,30.1
	c-0.1,0-0.1,0-0.1,0S212.1,30.1,212.1,30.1L212.1,30.1z"/>
<path style="fill-rule:evenodd;clip-rule:evenodd;fill:#333333;" d="M212.1,30.1C212.2,30.1,212.2,30.1,212.1,30.1
	c0.1,0.1,0,0.1,0,0.1C212.1,30.2,212.1,30.2,212.1,30.1C212.1,30.1,212.1,30.1,212.1,30.1L212.1,30.1z"/>
<polygon style="fill-rule:evenodd;clip-rule:evenodd;fill:#333333;" points="212.3,31 212.5,32 212.8,33.5 212.1,33.5 211.5,33.5 
	211.8,32 212,31 212.3,31 "/>
<polygon style="fill-rule:evenodd;clip-rule:evenodd;fill:#333333;" points="212.1,30.8 212.2,30.8 212.2,31 212.1,31 212.1,30.8 
	"/>
<polygon style="fill-rule:evenodd;clip-rule:evenodd;fill:#333333;" points="211.9,31 212.1,30.9 212.3,31 212.3,31 212.1,31.1 
	211.9,31 211.9,31 "/>
<polygon style="fill-rule:evenodd;clip-rule:evenodd;fill:#333333;" points="211.3,32.7 211.4,33 211.5,33.3 211.3,33.3 211.2,33.3 
	211.3,33 211.3,32.7 "/>
<path style="fill-rule:evenodd;clip-rule:evenodd;fill:#333333;" d="M211.3,32.8C211.4,32.8,211.4,32.8,211.3,32.8
	C211.4,32.9,211.4,32.9,211.3,32.8C211.3,32.9,211.3,32.9,211.3,32.8C211.3,32.8,211.3,32.8,211.3,32.8L211.3,32.8z"/>
<path style="fill-rule:evenodd;clip-rule:evenodd;fill:#333333;" d="M211.3,32.8C211.4,32.8,211.4,32.8,211.3,32.8
	C211.4,32.8,211.4,32.8,211.3,32.8C211.3,32.8,211.3,32.8,211.3,32.8C211.3,32.8,211.3,32.8,211.3,32.8L211.3,32.8z"/>
<path style="fill-rule:evenodd;clip-rule:evenodd;fill:#333333;" d="M211.3,32.7C211.4,32.7,211.4,32.7,211.3,32.7
	C211.4,32.8,211.4,32.8,211.3,32.7C211.3,32.8,211.3,32.8,211.3,32.7C211.3,32.7,211.3,32.7,211.3,32.7L211.3,32.7z"/>
<polygon style="fill-rule:evenodd;clip-rule:evenodd;fill:#333333;" points="211.2,33.3 211.3,33.3 211.5,33.3 211.5,33.3 
	211.3,33.4 211.2,33.3 211.2,33.3 "/>
<polygon style="fill-rule:evenodd;clip-rule:evenodd;fill:#333333;" points="211.2,33.3 211.5,33.3 211.5,35.6 211.2,35.6 
	211.2,33.3 "/>
<polygon style="fill-rule:evenodd;clip-rule:evenodd;fill:#333333;" points="211.2,33.5 211.3,33.4 211.5,33.5 211.5,33.5 
	211.3,33.5 211.2,33.5 211.2,33.5 "/>
<polygon style="fill-rule:evenodd;clip-rule:evenodd;fill:#333333;" points="210.9,33.9 211,34.2 211.1,34.6 210.9,34.6 210.8,34.6 
	210.8,34.2 210.9,33.9 "/>
<path style="fill-rule:evenodd;clip-rule:evenodd;fill:#333333;" d="M210.9,34.1C210.9,34.1,211,34.1,210.9,34.1
	C211,34.1,210.9,34.1,210.9,34.1C210.9,34.1,210.9,34.1,210.9,34.1C210.9,34.1,210.9,34.1,210.9,34.1L210.9,34.1z"/>
<path style="fill-rule:evenodd;clip-rule:evenodd;fill:#333333;" d="M210.9,34C210.9,34,211,34,210.9,34C211,34,210.9,34.1,210.9,34
	C210.9,34.1,210.9,34,210.9,34C210.9,34,210.9,34,210.9,34L210.9,34z"/>
<path style="fill-rule:evenodd;clip-rule:evenodd;fill:#333333;" d="M210.9,34C210.9,34,210.9,34,210.9,34
	C210.9,34,210.9,34,210.9,34C210.9,34,210.9,34,210.9,34C210.9,34,210.9,34,210.9,34L210.9,34z"/>
<polygon style="fill-rule:evenodd;clip-rule:evenodd;fill:#333333;" points="210.7,34.5 210.9,34.5 211.1,34.5 211.1,34.6 
	210.9,34.6 210.7,34.6 210.7,34.5 "/>
<polygon style="fill-rule:evenodd;clip-rule:evenodd;fill:#333333;" points="210.8,34.5 211.1,34.5 211.1,36 210.8,36 210.8,34.5 
	"/>
<polygon style="fill-rule:evenodd;clip-rule:evenodd;fill:#333333;" points="210.7,34.7 210.9,34.7 211.1,34.7 211.1,34.7 
	210.9,34.8 210.7,34.7 210.7,34.7 "/>
<polygon style="fill-rule:evenodd;clip-rule:evenodd;fill:#333333;" points="210.4,35.2 210.5,35.7 210.6,36.1 210.4,36.1 
	210.1,36.1 210.2,35.7 210.4,35.2 "/>
<path style="fill-rule:evenodd;clip-rule:evenodd;fill:#333333;" d="M210.4,35.4C210.4,35.4,210.4,35.4,210.4,35.4
	C210.4,35.4,210.4,35.4,210.4,35.4C210.3,35.4,210.3,35.4,210.4,35.4C210.3,35.4,210.3,35.4,210.4,35.4L210.4,35.4z"/>
<path style="fill-rule:evenodd;clip-rule:evenodd;fill:#333333;" d="M210.4,35.3C210.4,35.3,210.4,35.3,210.4,35.3
	c0.1,0.1,0,0.1,0,0.1S210.3,35.4,210.4,35.3C210.3,35.3,210.3,35.3,210.4,35.3L210.4,35.3z"/>
<path style="fill-rule:evenodd;clip-rule:evenodd;fill:#333333;" d="M210.4,35.2C210.4,35.2,210.4,35.2,210.4,35.2
	C210.4,35.3,210.4,35.3,210.4,35.2C210.3,35.3,210.3,35.3,210.4,35.2C210.3,35.2,210.3,35.2,210.4,35.2L210.4,35.2z"/>
<polygon style="fill-rule:evenodd;clip-rule:evenodd;fill:#333333;" points="210.1,36.1 210.4,36 210.6,36.1 210.6,36.1 210.4,36.2 
	210.1,36.1 210.1,36.1 "/>
<polygon style="fill-rule:evenodd;clip-rule:evenodd;fill:#333333;" points="210.1,36.1 210.6,36.1 210.6,39.4 210.1,39.4 
	210.1,36.1 "/>
<polygon style="fill-rule:evenodd;clip-rule:evenodd;fill:#333333;" points="210.1,36.3 210.4,36.3 210.6,36.3 210.6,36.4 
	210.4,36.4 210.1,36.4 210.1,36.3 "/>
<path style="fill-rule:evenodd;clip-rule:evenodd;fill:#333333;" d="M210.9,35.8c0.2,0,0.4,0.2,0.4,0.4s-0.2,0.4-0.4,0.4
	c-0.2,0-0.4-0.2-0.4-0.4S210.7,35.8,210.9,35.8L210.9,35.8z"/>
<polygon style="fill-rule:evenodd;clip-rule:evenodd;fill:#333333;" points="211.2,34 211.3,34 211.3,34.1 211.2,34 211.2,34 "/>
<polygon style="fill-rule:evenodd;clip-rule:evenodd;fill:#333333;" points="210.7,35.4 210.9,35.4 210.9,35.5 210.7,35.4 
	210.7,35.4 "/>
<polygon style="fill-rule:evenodd;clip-rule:evenodd;fill:#333333;" points="212.9,32.7 212.8,33 212.8,33.3 212.9,33.3 213.1,33.3 
	213,33 212.9,32.7 "/>
<path style="fill-rule:evenodd;clip-rule:evenodd;fill:#333333;" d="M212.9,32.8C212.9,32.8,212.9,32.8,212.9,32.8
	C212.9,32.9,212.9,32.9,212.9,32.8C212.9,32.9,213,32.9,212.9,32.8C213,32.8,212.9,32.8,212.9,32.8L212.9,32.8z"/>
<path style="fill-rule:evenodd;clip-rule:evenodd;fill:#333333;" d="M212.9,32.8C212.9,32.8,212.9,32.8,212.9,32.8
	C212.9,32.8,212.9,32.8,212.9,32.8C212.9,32.8,213,32.8,212.9,32.8C213,32.8,212.9,32.8,212.9,32.8L212.9,32.8z"/>
<path style="fill-rule:evenodd;clip-rule:evenodd;fill:#333333;" d="M212.9,32.7C212.9,32.7,212.9,32.7,212.9,32.7
	C212.9,32.8,212.9,32.8,212.9,32.7C212.9,32.8,212.9,32.8,212.9,32.7C212.9,32.7,212.9,32.7,212.9,32.7L212.9,32.7z"/>
<polygon style="fill-rule:evenodd;clip-rule:evenodd;fill:#333333;" points="213.1,33.3 212.9,33.3 212.7,33.3 212.7,33.3 
	212.9,33.4 213.1,33.3 213.1,33.3 "/>
<polygon style="fill-rule:evenodd;clip-rule:evenodd;fill:#333333;" points="213.1,33.3 212.8,33.3 212.8,35.6 213.1,35.6 
	213.1,33.3 "/>
<polygon style="fill-rule:evenodd;clip-rule:evenodd;fill:#333333;" points="213.1,33.5 212.9,33.4 212.7,33.5 212.7,33.5 
	212.9,33.5 213.1,33.5 213.1,33.5 "/>
<polygon style="fill-rule:evenodd;clip-rule:evenodd;fill:#333333;" points="213.3,33.9 213.3,34.2 213.2,34.6 213.3,34.6 
	213.5,34.6 213.4,34.2 213.3,33.9 "/>
<path style="fill-rule:evenodd;clip-rule:evenodd;fill:#333333;" d="M213.3,34.1C213.3,34.1,213.3,34.1,213.3,34.1
	C213.3,34.1,213.3,34.1,213.3,34.1C213.4,34.1,213.4,34.1,213.3,34.1C213.4,34.1,213.4,34.1,213.3,34.1L213.3,34.1z"/>
<path style="fill-rule:evenodd;clip-rule:evenodd;fill:#333333;" d="M213.3,34C213.3,34,213.3,34,213.3,34
	C213.3,34,213.3,34.1,213.3,34C213.4,34.1,213.4,34,213.3,34C213.4,34,213.4,34,213.3,34L213.3,34z"/>
<path style="fill-rule:evenodd;clip-rule:evenodd;fill:#333333;" d="M213.3,34C213.3,34,213.3,34,213.3,34
	C213.3,34,213.3,34,213.3,34C213.4,34,213.4,34,213.3,34C213.4,34,213.4,34,213.3,34L213.3,34z"/>
<polygon style="fill-rule:evenodd;clip-rule:evenodd;fill:#333333;" points="213.5,34.5 213.3,34.5 213.2,34.5 213.2,34.6 
	213.3,34.6 213.5,34.6 213.5,34.5 "/>
<polygon style="fill-rule:evenodd;clip-rule:evenodd;fill:#333333;" points="213.5,34.5 213.2,34.5 213.2,36 213.5,36 213.5,34.5 
	"/>
<polygon style="fill-rule:evenodd;clip-rule:evenodd;fill:#333333;" points="213.5,34.7 213.3,34.7 213.2,34.7 213.2,34.7 
	213.3,34.8 213.5,34.7 213.5,34.7 "/>
<polygon style="fill-rule:evenodd;clip-rule:evenodd;fill:#333333;" points="213.9,35.2 213.8,35.7 213.7,36.1 213.9,36.1 
	214.1,36.1 214,35.7 213.9,35.2 "/>
<path style="fill-rule:evenodd;clip-rule:evenodd;fill:#333333;" d="M213.9,35.4C213.9,35.4,213.8,35.4,213.9,35.4
	C213.8,35.4,213.9,35.4,213.9,35.4C213.9,35.4,214,35.4,213.9,35.4C214,35.4,213.9,35.4,213.9,35.4L213.9,35.4z"/>
<path style="fill-rule:evenodd;clip-rule:evenodd;fill:#333333;" d="M213.9,35.3C213.9,35.3,213.9,35.3,213.9,35.3
	c-0.1,0.1,0,0.1,0,0.1S214,35.4,213.9,35.3C214,35.3,213.9,35.3,213.9,35.3L213.9,35.3z"/>
<path style="fill-rule:evenodd;clip-rule:evenodd;fill:#333333;" d="M213.9,35.2C213.9,35.2,213.9,35.2,213.9,35.2
	C213.9,35.3,213.9,35.3,213.9,35.2C213.9,35.3,213.9,35.3,213.9,35.2C213.9,35.2,213.9,35.2,213.9,35.2L213.9,35.2z"/>
<polygon style="fill-rule:evenodd;clip-rule:evenodd;fill:#333333;" points="214.2,36.1 213.9,36 213.7,36.1 213.7,36.1 213.9,36.2 
	214.2,36.1 214.2,36.1 "/>
<polygon style="fill-rule:evenodd;clip-rule:evenodd;fill:#333333;" points="214.1,36.1 213.7,36.1 213.7,48.4 214.1,48.4 
	214.1,36.1 "/>
<polygon style="fill-rule:evenodd;clip-rule:evenodd;fill:#333333;" points="214.2,36.3 213.9,36.3 213.7,36.3 213.7,36.4 
	213.9,36.4 214.2,36.4 214.2,36.3 "/>
<path style="fill-rule:evenodd;clip-rule:evenodd;fill:#333333;" d="M213.4,35.8c-0.2,0-0.4,0.2-0.4,0.4s0.2,0.4,0.4,0.4
	c0.2,0,0.4-0.2,0.4-0.4S213.6,35.8,213.4,35.8L213.4,35.8z"/>
<polygon style="fill-rule:evenodd;clip-rule:evenodd;fill:#333333;" points="213.1,34 212.9,34 212.9,34.1 213.1,34 213.1,34 "/>
<polygon style="fill-rule:evenodd;clip-rule:evenodd;fill:#333333;" points="213.5,35.4 213.4,35.4 213.4,35.5 213.5,35.4 
	213.5,35.4 "/>
<polygon style="fill-rule:evenodd;clip-rule:evenodd;fill:#333333;" points="211.3,33.5 212.9,33.5 212.9,35.6 211.3,35.6 
	211.3,33.5 "/>
<polygon style="fill-rule:evenodd;clip-rule:evenodd;fill:#333333;" points="211,35.1 213.3,35.1 213.3,37.3 211,37.3 211,35.1 "/>
<polygon style="fill-rule:evenodd;clip-rule:evenodd;fill:#333333;" points="210.3,36.2 213.9,36.2 213.9,48.4 210.3,48.4 
	210.3,36.2 "/>
<polygon style="fill-rule:evenodd;clip-rule:evenodd;fill:#333333;" points="210.5,36.2 213.2,36.2 213.2,48.4 210.5,48.4 
	210.5,36.2 "/>
<polygon style="fill-rule:evenodd;clip-rule:evenodd;fill:#333333;" points="214.1,44 214.1,44 214.2,44.2 214.2,44.3 214.1,44.3 
	214.1,44 "/>
<polygon style="fill-rule:evenodd;clip-rule:evenodd;fill:#333333;" points="214.1,37.3 214.1,37.3 214.2,37.5 214.2,37.5 
	214.1,37.6 214.1,37.3 "/>
<polygon style="fill-rule:evenodd;clip-rule:evenodd;fill:#333333;" points="214.2,37.3 214.2,37.3 214.1,37.3 214.1,37.3 
	214.1,37.3 214.1,37.4 214.2,37.4 214.2,37.3 214.2,37.3 "/>
<polygon style="fill-rule:evenodd;clip-rule:evenodd;fill:#333333;" points="210.2,37.3 210.1,37.3 210,37.5 210,37.5 210.2,37.6 
	210.2,37.3 "/>
<polygon style="fill-rule:evenodd;clip-rule:evenodd;fill:#333333;" points="210.1,37.3 210.1,37.3 210.2,37.3 210.2,37.3 
	210.2,37.3 210.2,37.4 210.1,37.4 210.1,37.3 210.1,37.3 "/>
<path style="fill-rule:evenodd;clip-rule:evenodd;fill:#333333;" d="M198.8,30.5c-0.1,0-0.1,0.1-0.1,0.1c0,0.1,0.1,0.1,0.1,0.1
	s0.1-0.1,0.1-0.1C198.9,30.6,198.8,30.5,198.8,30.5L198.8,30.5z"/>
<path style="fill-rule:evenodd;clip-rule:evenodd;fill:#333333;" d="M198.8,30.4C198.7,30.4,198.7,30.4,198.8,30.4
	C198.7,30.4,198.7,30.4,198.8,30.4C198.8,30.4,198.8,30.4,198.8,30.4C198.8,30.4,198.8,30.4,198.8,30.4L198.8,30.4z"/>
<path style="fill-rule:evenodd;clip-rule:evenodd;fill:#333333;" d="M198.8,30.5c-0.1,0-0.1,0-0.1,0S198.7,30.5,198.8,30.5
	c0.1,0.1,0.1,0,0.1,0S198.8,30.5,198.8,30.5L198.8,30.5z"/>
<polygon style="fill-rule:evenodd;clip-rule:evenodd;fill:#333333;" points="198.8,29.3 198.7,30 198.7,30.8 198.8,30.8 198.8,30.8 
	198.8,30 198.8,29.3 "/>
<path style="fill-rule:evenodd;clip-rule:evenodd;fill:#333333;" d="M198.8,29.6C198.7,29.6,198.7,29.6,198.8,29.6
	C198.7,29.7,198.7,29.7,198.8,29.6C198.8,29.7,198.8,29.7,198.8,29.6C198.8,29.6,198.8,29.6,198.8,29.6L198.8,29.6z"/>
<path style="fill-rule:evenodd;clip-rule:evenodd;fill:#333333;" d="M198.8,30.1c-0.1,0-0.1,0-0.1,0S198.7,30.2,198.8,30.1
	c0.1,0,0.1,0,0.1,0S198.8,30.1,198.8,30.1L198.8,30.1z"/>
<path style="fill-rule:evenodd;clip-rule:evenodd;fill:#333333;" d="M198.8,30.1C198.7,30.1,198.7,30.1,198.8,30.1
	c-0.1,0.1,0,0.1,0,0.1S198.8,30.2,198.8,30.1C198.8,30.1,198.8,30.1,198.8,30.1L198.8,30.1z"/>
<polygon style="fill-rule:evenodd;clip-rule:evenodd;fill:#333333;" points="198.6,31 198.4,32 198.1,33.5 198.8,33.5 199.4,33.5 
	199.1,32 198.9,31 198.6,31 "/>
<polygon style="fill-rule:evenodd;clip-rule:evenodd;fill:#333333;" points="198.8,30.8 198.7,30.8 198.7,31 198.8,31 198.8,30.8 
	"/>
<polygon style="fill-rule:evenodd;clip-rule:evenodd;fill:#333333;" points="199,31 198.8,30.9 198.6,31 198.6,31 198.8,31.1 
	199,31 199,31 "/>
<polygon style="fill-rule:evenodd;clip-rule:evenodd;fill:#333333;" points="199.5,32.7 199.5,33 199.4,33.3 199.5,33.3 199.7,33.3 
	199.6,33 199.5,32.7 "/>
<path style="fill-rule:evenodd;clip-rule:evenodd;fill:#333333;" d="M199.5,32.8C199.5,32.8,199.5,32.8,199.5,32.8
	C199.5,32.9,199.5,32.9,199.5,32.8C199.6,32.9,199.6,32.9,199.5,32.8C199.6,32.8,199.6,32.8,199.5,32.8L199.5,32.8z"/>
<path style="fill-rule:evenodd;clip-rule:evenodd;fill:#333333;" d="M199.5,32.8C199.5,32.8,199.5,32.8,199.5,32.8
	C199.5,32.8,199.5,32.8,199.5,32.8C199.6,32.8,199.6,32.8,199.5,32.8C199.6,32.8,199.6,32.8,199.5,32.8L199.5,32.8z"/>
<path style="fill-rule:evenodd;clip-rule:evenodd;fill:#333333;" d="M199.5,32.7C199.5,32.7,199.5,32.7,199.5,32.7
	C199.5,32.8,199.5,32.8,199.5,32.7C199.6,32.8,199.6,32.8,199.5,32.7C199.6,32.7,199.6,32.7,199.5,32.7L199.5,32.7z"/>
<polygon style="fill-rule:evenodd;clip-rule:evenodd;fill:#333333;" points="199.7,33.3 199.5,33.3 199.4,33.3 199.4,33.3 
	199.5,33.4 199.7,33.3 199.7,33.3 "/>
<polygon style="fill-rule:evenodd;clip-rule:evenodd;fill:#333333;" points="199.7,33.3 199.4,33.3 199.4,35.6 199.7,35.6 
	199.7,33.3 "/>
<polygon style="fill-rule:evenodd;clip-rule:evenodd;fill:#333333;" points="199.7,33.5 199.5,33.4 199.4,33.5 199.4,33.5 
	199.5,33.5 199.7,33.5 199.7,33.5 "/>
<polygon style="fill-rule:evenodd;clip-rule:evenodd;fill:#333333;" points="200,33.9 199.9,34.2 199.8,34.6 200,34.6 200.1,34.6 
	200,34.2 200,33.9 "/>
<path style="fill-rule:evenodd;clip-rule:evenodd;fill:#333333;" d="M200,34.1C199.9,34.1,199.9,34.1,200,34.1
	C199.9,34.1,199.9,34.1,200,34.1C200,34.1,200,34.1,200,34.1C200,34.1,200,34.1,200,34.1L200,34.1z"/>
<path style="fill-rule:evenodd;clip-rule:evenodd;fill:#333333;" d="M200,34C200,34,199.9,34,200,34C199.9,34,200,34.1,200,34
	C200,34.1,200,34,200,34C200,34,200,34,200,34L200,34z"/>
<path style="fill-rule:evenodd;clip-rule:evenodd;fill:#333333;" d="M200,34C200,34,200,34,200,34C200,34,200,34,200,34
	C200,34,200,34,200,34C200,34,200,34,200,34L200,34z"/>
<polygon style="fill-rule:evenodd;clip-rule:evenodd;fill:#333333;" points="200.1,34.5 200,34.5 199.8,34.5 199.8,34.6 200,34.6 
	200.1,34.6 200.1,34.5 "/>
<polygon style="fill-rule:evenodd;clip-rule:evenodd;fill:#333333;" points="200.1,34.5 199.8,34.5 199.8,36 200.1,36 200.1,34.5 
	"/>
<polygon style="fill-rule:evenodd;clip-rule:evenodd;fill:#333333;" points="200.1,34.7 200,34.7 199.8,34.7 199.8,34.7 200,34.8 
	200.1,34.7 200.1,34.7 "/>
<polygon style="fill-rule:evenodd;clip-rule:evenodd;fill:#333333;" points="200.5,35.2 200.4,35.7 200.3,36.1 200.5,36.1 
	200.7,36.1 200.6,35.7 200.5,35.2 "/>
<path style="fill-rule:evenodd;clip-rule:evenodd;fill:#333333;" d="M200.5,35.4C200.5,35.4,200.5,35.4,200.5,35.4
	C200.5,35.4,200.5,35.4,200.5,35.4C200.6,35.4,200.6,35.4,200.5,35.4C200.6,35.4,200.6,35.4,200.5,35.4L200.5,35.4z"/>
<path style="fill-rule:evenodd;clip-rule:evenodd;fill:#333333;" d="M200.5,35.3C200.5,35.3,200.5,35.3,200.5,35.3
	c-0.1,0.1,0,0.1,0,0.1S200.6,35.4,200.5,35.3C200.6,35.3,200.6,35.3,200.5,35.3L200.5,35.3z"/>
<path style="fill-rule:evenodd;clip-rule:evenodd;fill:#333333;" d="M200.5,35.2C200.5,35.2,200.5,35.2,200.5,35.2
	C200.5,35.3,200.5,35.3,200.5,35.2C200.6,35.3,200.6,35.3,200.5,35.2C200.6,35.2,200.6,35.2,200.5,35.2L200.5,35.2z"/>
<polygon style="fill-rule:evenodd;clip-rule:evenodd;fill:#333333;" points="200.8,36.1 200.5,36 200.3,36.1 200.3,36.1 200.5,36.2 
	200.8,36.1 200.8,36.1 "/>
<polygon style="fill-rule:evenodd;clip-rule:evenodd;fill:#333333;" points="200.8,36.1 200.3,36.1 200.3,39.4 200.8,39.4 
	200.8,36.1 "/>
<polygon style="fill-rule:evenodd;clip-rule:evenodd;fill:#333333;" points="200.8,36.3 200.5,36.3 200.3,36.3 200.3,36.4 
	200.5,36.4 200.8,36.4 200.8,36.3 "/>
<path style="fill-rule:evenodd;clip-rule:evenodd;fill:#333333;" d="M200,35.8c-0.2,0-0.4,0.2-0.4,0.4s0.2,0.4,0.4,0.4
	s0.4-0.2,0.4-0.4S200.2,35.8,200,35.8L200,35.8z"/>
<polygon style="fill-rule:evenodd;clip-rule:evenodd;fill:#333333;" points="199.7,34 199.6,34 199.6,34.1 199.7,34 199.7,34 "/>
<polygon style="fill-rule:evenodd;clip-rule:evenodd;fill:#333333;" points="200.2,35.4 200,35.4 200,35.5 200.2,35.4 200.2,35.4 
	"/>
<polygon style="fill-rule:evenodd;clip-rule:evenodd;fill:#333333;" points="198,32.7 198,33 198.1,33.3 198,33.3 197.8,33.3 
	197.9,33 198,32.7 "/>
<path style="fill-rule:evenodd;clip-rule:evenodd;fill:#333333;" d="M198,32.8C198,32.8,198,32.8,198,32.8
	C198,32.9,198,32.9,198,32.8C197.9,32.9,197.9,32.9,198,32.8C197.9,32.8,197.9,32.8,198,32.8L198,32.8z"/>
<path style="fill-rule:evenodd;clip-rule:evenodd;fill:#333333;" d="M198,32.8C198,32.8,198,32.8,198,32.8
	C198,32.8,198,32.8,198,32.8C198,32.8,197.9,32.8,198,32.8C197.9,32.8,198,32.8,198,32.8L198,32.8z"/>
<path style="fill-rule:evenodd;clip-rule:evenodd;fill:#333333;" d="M198,32.7C198,32.7,198,32.7,198,32.7
	C198,32.8,198,32.8,198,32.7C198,32.8,198,32.8,198,32.7C198,32.7,198,32.7,198,32.7L198,32.7z"/>
<polygon style="fill-rule:evenodd;clip-rule:evenodd;fill:#333333;" points="197.8,33.3 198,33.3 198.1,33.3 198.1,33.3 198,33.4 
	197.8,33.3 197.8,33.3 "/>
<polygon style="fill-rule:evenodd;clip-rule:evenodd;fill:#333333;" points="197.8,33.3 198.1,33.3 198.1,35.6 197.8,35.6 
	197.8,33.3 "/>
<polygon style="fill-rule:evenodd;clip-rule:evenodd;fill:#333333;" points="197.8,33.5 198,33.4 198.1,33.5 198.1,33.5 198,33.5 
	197.8,33.5 197.8,33.5 "/>
<polygon style="fill-rule:evenodd;clip-rule:evenodd;fill:#333333;" points="197.5,33.9 197.6,34.2 197.7,34.6 197.5,34.6 
	197.4,34.6 197.5,34.2 197.5,33.9 "/>
<path style="fill-rule:evenodd;clip-rule:evenodd;fill:#333333;" d="M197.5,34.1C197.6,34.1,197.6,34.1,197.5,34.1
	C197.6,34.1,197.6,34.1,197.5,34.1C197.5,34.1,197.5,34.1,197.5,34.1C197.5,34.1,197.5,34.1,197.5,34.1L197.5,34.1z"/>
<path style="fill-rule:evenodd;clip-rule:evenodd;fill:#333333;" d="M197.5,34C197.6,34,197.6,34,197.5,34
	C197.6,34,197.6,34.1,197.5,34C197.5,34.1,197.5,34,197.5,34C197.5,34,197.5,34,197.5,34L197.5,34z"/>
<path style="fill-rule:evenodd;clip-rule:evenodd;fill:#333333;" d="M197.5,34C197.6,34,197.6,34,197.5,34
	C197.6,34,197.6,34,197.5,34C197.5,34,197.5,34,197.5,34C197.5,34,197.5,34,197.5,34L197.5,34z"/>
<polygon style="fill-rule:evenodd;clip-rule:evenodd;fill:#333333;" points="197.4,34.5 197.5,34.5 197.7,34.5 197.7,34.6 
	197.5,34.6 197.4,34.6 197.4,34.5 "/>
<polygon style="fill-rule:evenodd;clip-rule:evenodd;fill:#333333;" points="197.4,34.5 197.7,34.5 197.7,36 197.4,36 197.4,34.5 
	"/>
<polygon style="fill-rule:evenodd;clip-rule:evenodd;fill:#333333;" points="197.4,34.7 197.5,34.7 197.7,34.7 197.7,34.7 
	197.5,34.8 197.4,34.7 197.4,34.7 "/>
<polygon style="fill-rule:evenodd;clip-rule:evenodd;fill:#333333;" points="197,35.2 197.1,35.7 197.2,36.1 197,36.1 196.8,36.1 
	196.9,35.7 197,35.2 "/>
<path style="fill-rule:evenodd;clip-rule:evenodd;fill:#333333;" d="M197,35.4C197,35.4,197,35.4,197,35.4
	C197,35.4,197,35.4,197,35.4C196.9,35.4,196.9,35.4,197,35.4C196.9,35.4,196.9,35.4,197,35.4L197,35.4z"/>
<path style="fill-rule:evenodd;clip-rule:evenodd;fill:#333333;" d="M197,35.3C197,35.3,197,35.3,197,35.3c0.1,0.1,0,0.1,0,0.1
	C196.9,35.4,196.9,35.4,197,35.3C196.9,35.3,196.9,35.3,197,35.3L197,35.3z"/>
<path style="fill-rule:evenodd;clip-rule:evenodd;fill:#333333;" d="M197,35.2C197,35.2,197,35.2,197,35.2
	C197,35.3,197,35.3,197,35.2C197,35.3,197,35.3,197,35.2C197,35.2,197,35.2,197,35.2L197,35.2z"/>
<polygon style="fill-rule:evenodd;clip-rule:evenodd;fill:#333333;" points="196.7,36.1 197,36 197.2,36.1 197.2,36.1 197,36.2 
	196.7,36.1 196.7,36.1 "/>
<polygon style="fill-rule:evenodd;clip-rule:evenodd;fill:#333333;" points="196.8,36.1 197.2,36.1 197.2,48.4 196.8,48.4 
	196.8,36.1 "/>
<polygon style="fill-rule:evenodd;clip-rule:evenodd;fill:#333333;" points="196.7,36.3 197,36.3 197.2,36.3 197.2,36.4 197,36.4 
	196.7,36.4 196.7,36.3 "/>
<path style="fill-rule:evenodd;clip-rule:evenodd;fill:#333333;" d="M197.5,35.8c0.2,0,0.4,0.2,0.4,0.4s-0.2,0.4-0.4,0.4
	c-0.2,0-0.4-0.2-0.4-0.4S197.3,35.8,197.5,35.8L197.5,35.8z"/>
<polygon style="fill-rule:evenodd;clip-rule:evenodd;fill:#333333;" points="197.8,34 197.9,34 197.9,34.1 197.8,34 197.8,34 "/>
<polygon style="fill-rule:evenodd;clip-rule:evenodd;fill:#333333;" points="197.4,35.4 197.5,35.4 197.5,35.5 197.4,35.4 
	197.4,35.4 "/>
<polygon style="fill-rule:evenodd;clip-rule:evenodd;fill:#333333;" points="199.5,33.5 198,33.5 198,35.6 199.5,35.6 199.5,33.5 
	"/>
<polygon style="fill-rule:evenodd;clip-rule:evenodd;fill:#333333;" points="199.9,35.1 197.6,35.1 197.6,37.3 199.9,37.3 
	199.9,35.1 "/>
<polygon style="fill-rule:evenodd;clip-rule:evenodd;fill:#333333;" points="200.6,36.2 197,36.2 197,48.4 200.6,48.4 200.6,36.2 
	"/>
<polygon style="fill-rule:evenodd;clip-rule:evenodd;fill:#333333;" points="200.4,36.2 197.7,36.2 197.7,48.4 200.4,48.4 
	200.4,36.2 "/>
<polygon style="fill-rule:evenodd;clip-rule:evenodd;fill:#333333;" points="196.8,44 196.8,44 196.7,44.2 196.7,44.3 196.8,44.3 
	196.8,44 "/>
<polygon style="fill-rule:evenodd;clip-rule:evenodd;fill:#333333;" points="196.8,37.3 196.8,37.3 196.7,37.5 196.7,37.5 
	196.8,37.6 196.8,37.3 "/>
<polygon style="fill-rule:evenodd;clip-rule:evenodd;fill:#333333;" points="196.7,37.3 196.7,37.3 196.8,37.3 196.8,37.3 
	196.8,37.3 196.8,37.4 196.7,37.4 196.7,37.3 196.7,37.3 "/>
<polygon style="fill-rule:evenodd;clip-rule:evenodd;fill:#333333;" points="200.7,37.3 200.8,37.3 200.9,37.5 200.9,37.5 
	200.7,37.6 200.7,37.3 "/>
<polygon style="fill-rule:evenodd;clip-rule:evenodd;fill:#333333;" points="200.8,37.3 200.8,37.3 200.7,37.3 200.7,37.3 
	200.7,37.3 200.7,37.4 200.8,37.4 200.8,37.3 200.8,37.3 "/>
<path style="fill-rule:evenodd;clip-rule:evenodd;fill:#333333;" d="M85.3,19c2,0,3.6,2.3,3.6,5s-1.6,5-3.6,5c-2,0-3.6-2.3-3.6-5
	S83.3,19,85.3,19L85.3,19z"/>
<path style="fill-rule:evenodd;clip-rule:evenodd;fill:#333333;" d="M85.3,16.4c0.3,0,0.5,0.3,0.5,0.7s-0.2,0.7-0.5,0.7
	s-0.5-0.3-0.5-0.7S85.1,16.4,85.3,16.4L85.3,16.4z"/>
<path style="fill-rule:evenodd;clip-rule:evenodd;fill:#333333;" d="M85.3,15.7c0.1,0,0.2,0.1,0.2,0.2s-0.1,0.2-0.2,0.2
	s-0.2-0.1-0.2-0.2S85.2,15.7,85.3,15.7L85.3,15.7z"/>
<polygon style="fill-rule:evenodd;clip-rule:evenodd;fill:#333333;" points="85.2,16.3 85.5,16.3 85.5,16.7 85.2,16.7 85.2,16.3 "/>
<polygon style="fill-rule:evenodd;clip-rule:evenodd;fill:#333333;" points="85.3,15.6 85.4,16 85.5,16.5 85.3,16.5 85.2,16.5 
	85.3,16 85.3,15.6 "/>
<polygon style="fill-rule:evenodd;clip-rule:evenodd;fill:#333333;" points="85.2,16.2 85.5,16.2 85.5,16.5 85.2,16.5 85.2,16.2 "/>
<polygon style="fill-rule:evenodd;clip-rule:evenodd;fill:#333333;" points="84.3,18.6 86.4,18.6 86.4,19.3 84.3,19.3 84.3,18.6 "/>
<polygon style="fill-rule:evenodd;clip-rule:evenodd;fill:#333333;" points="84.3,19 86.4,19 86.4,19.1 84.3,19.1 84.3,19 "/>
<polygon style="fill-rule:evenodd;clip-rule:evenodd;fill:#333333;" points="84.7,18.2 84.7,18.1 86,18.1 86,18.2 86,18.7 
	84.7,18.7 84.7,18.2 "/>
<polygon style="fill-rule:evenodd;clip-rule:evenodd;fill:#333333;" points="84.8,17.4 85.9,17.4 85.9,18.2 84.8,18.2 84.8,17.4 "/>
<polygon style="fill-rule:evenodd;clip-rule:evenodd;fill:#333333;" points="84.6,17.2 86,17.2 86,17.3 86,17.4 84.7,17.4 
	84.6,17.3 84.6,17.2 "/>
<polygon style="fill-rule:evenodd;clip-rule:evenodd;fill:#333333;" points="84.3,18.5 84.6,18.5 84.6,18.7 84.3,18.7 84.3,18.5 "/>
<polygon style="fill-rule:evenodd;clip-rule:evenodd;fill:#333333;" points="86.1,18.5 86.4,18.5 86.4,18.7 86.1,18.7 86.1,18.5 "/>
<polygon style="fill-rule:evenodd;clip-rule:evenodd;fill:#333333;" points="81.5,24.4 89.2,24.4 89.2,28.6 81.5,28.6 81.5,24.4 "/>
<polygon style="fill-rule:evenodd;clip-rule:evenodd;fill:#333333;" points="80.8,25.9 89.8,25.9 89.8,35.8 80.8,35.8 80.8,25.9 "/>
<polygon style="fill-rule:evenodd;clip-rule:evenodd;fill:#333333;" points="80.4,30.5 90.3,30.5 90.3,32.3 80.4,32.3 80.4,30.5 "/>
<polygon style="fill-rule:evenodd;clip-rule:evenodd;fill:#333333;" points="89.5,24.3 88.8,24.3 88.8,24.6 89.4,24.4 89.5,24.4 
	89.5,24.3 "/>
<polygon style="fill-rule:evenodd;clip-rule:evenodd;fill:#333333;" points="89.2,23.9 88.8,23.3 88.8,24.3 89.2,24.3 89.2,23.9 "/>
<polygon style="fill-rule:evenodd;clip-rule:evenodd;fill:#333333;" points="90.3,26.4 89.8,26.4 89.8,26.8 90.2,26.6 90.3,26.6 
	90.3,26.4 "/>
<polygon style="fill-rule:evenodd;clip-rule:evenodd;fill:#333333;" points="90,27.3 89.7,27.3 89.7,27.7 90,27.5 90,27.3 "/>
<polygon style="fill-rule:evenodd;clip-rule:evenodd;fill:#333333;" points="90.5,30.4 89.8,30.4 89.8,30.8 90.4,30.6 90.5,30.6 
	90.5,30.4 "/>
<polygon style="fill-rule:evenodd;clip-rule:evenodd;fill:#333333;" points="91.4,32.2 89.1,32.2 89.1,32.4 91.4,32.4 91.4,32.2 "/>
<polygon style="fill-rule:evenodd;clip-rule:evenodd;fill:#333333;" points="90.2,31.5 90.6,31.5 91.3,32.3 90.2,32.3 90.2,31.5 "/>
<polygon style="fill-rule:evenodd;clip-rule:evenodd;fill:#333333;" points="98.8,32.4 88.4,32.4 88.4,35.8 100.2,35.8 98.8,32.4 
	"/>
<polygon style="fill-rule:evenodd;clip-rule:evenodd;fill:#333333;" points="105.8,33 95.9,33 95.9,36.3 107.1,36.3 105.8,33 "/>
<polygon style="fill-rule:evenodd;clip-rule:evenodd;fill:#333333;" points="105.9,33.9 106.8,33.9 106.8,35 105.9,35 105.9,33.9 
	"/>
<polygon style="fill-rule:evenodd;clip-rule:evenodd;fill:#333333;" points="106.9,33.9 105.8,33.9 105.8,34.1 106.9,34.1 
	106.9,33.9 "/>
<polygon style="fill-rule:evenodd;clip-rule:evenodd;fill:#333333;" points="106.3,34.9 107.4,34.9 107.4,35.1 106.3,35.1 
	106.3,34.9 "/>
<polygon style="fill-rule:evenodd;clip-rule:evenodd;fill:#333333;" points="107.3,35.1 106.2,35.1 106.2,35.6 107.3,35.2 
	107.3,35.1 "/>
<polygon style="fill-rule:evenodd;clip-rule:evenodd;fill:#333333;" points="107.1,35.2 106.5,35.2 106.5,49.8 107.1,49.8 
	107.1,35.2 "/>
<polygon style="fill-rule:evenodd;clip-rule:evenodd;fill:#333333;" points="107.2,36.1 106.6,36.1 106.6,36.4 107.2,36.2 
	107.2,36.1 "/>
<polygon style="fill-rule:evenodd;clip-rule:evenodd;fill:#333333;" points="81.2,24.3 81.9,24.3 81.9,24.6 81.3,24.4 81.2,24.4 
	81.2,24.3 "/>
<polygon style="fill-rule:evenodd;clip-rule:evenodd;fill:#333333;" points="81.5,23.9 81.9,23.3 81.9,24.3 81.5,24.3 81.5,23.9 "/>
<polygon style="fill-rule:evenodd;clip-rule:evenodd;fill:#333333;" points="80.4,26.4 80.9,26.4 80.9,26.8 80.5,26.6 80.4,26.6 
	80.4,26.4 "/>
<polygon style="fill-rule:evenodd;clip-rule:evenodd;fill:#333333;" points="80.7,27.3 81,27.3 81,27.7 80.7,27.5 80.7,27.3 "/>
<polygon style="fill-rule:evenodd;clip-rule:evenodd;fill:#333333;" points="80.2,30.4 80.9,30.4 80.9,30.8 80.3,30.6 80.2,30.6 
	80.2,30.4 "/>
<polygon style="fill-rule:evenodd;clip-rule:evenodd;fill:#333333;" points="79.3,32.2 81.6,32.2 81.6,32.4 79.3,32.4 79.3,32.2 "/>
<polygon style="fill-rule:evenodd;clip-rule:evenodd;fill:#333333;" points="80.5,31.5 80.1,31.5 79.4,32.3 80.5,32.3 80.5,31.5 "/>
<polygon style="fill-rule:evenodd;clip-rule:evenodd;fill:#333333;" points="71.9,32.4 82.3,32.4 82.3,35.8 70.5,35.8 71.9,32.4 "/>
<polygon style="fill-rule:evenodd;clip-rule:evenodd;fill:#333333;" points="64.9,33 74.8,33 74.8,36.3 63.6,36.3 64.9,33 "/>
<polygon style="fill-rule:evenodd;clip-rule:evenodd;fill:#333333;" points="64.8,33.9 63.9,33.9 63.9,35 64.8,35 64.8,33.9 "/>
<polygon style="fill-rule:evenodd;clip-rule:evenodd;fill:#333333;" points="63.8,33.9 64.9,33.9 64.9,34.1 63.8,34.1 63.8,33.9 "/>
<polygon style="fill-rule:evenodd;clip-rule:evenodd;fill:#333333;" points="64.4,34.9 63.3,34.9 63.3,35.1 64.4,35.1 64.4,34.9 "/>
<polygon style="fill-rule:evenodd;clip-rule:evenodd;fill:#333333;" points="63.4,35.1 64.5,35.1 64.5,35.6 63.4,35.2 63.4,35.1 "/>
<polygon style="fill-rule:evenodd;clip-rule:evenodd;fill:#333333;" points="63.6,35.2 64.2,35.2 64.2,49.8 63.6,49.8 63.6,35.2 "/>
<polygon style="fill-rule:evenodd;clip-rule:evenodd;fill:#333333;" points="63.4,36.1 64.1,36.1 64.1,36.4 63.4,36.2 63.4,36.1 "/>
<polygon style="fill-rule:evenodd;clip-rule:evenodd;fill:#333333;" points="63.9,35.6 106.8,35.6 106.8,49.8 63.9,49.8 63.9,35.6 
	"/>
<polygon style="fill-rule:evenodd;clip-rule:evenodd;fill:#333333;" points="146.4,10.6 124.6,10.6 124.6,48.5 146.4,48.5 
	146.4,10.6 "/>
<polygon style="fill-rule:evenodd;clip-rule:evenodd;fill:#333333;" points="140.1,4.5 130.9,4.5 130.9,12.4 140.1,12.4 140.1,4.5 
	"/>
<polygon style="fill-rule:evenodd;clip-rule:evenodd;fill:#333333;" points="138.1,4.3 132.9,4.3 132.9,4.9 138.1,4.9 138.1,4.3 "/>
<polygon style="fill-rule:evenodd;clip-rule:evenodd;fill:#333333;" points="133.4,3.3 137.6,3.3 137.6,4.5 133.4,4.5 133.4,3.3 "/>
<polygon style="fill-rule:evenodd;clip-rule:evenodd;fill:#333333;" points="135.1,2.3 135.4,2.3 135.4,3.4 135.1,3.4 135.1,2.3 "/>
<polygon style="fill-rule:evenodd;clip-rule:evenodd;fill:#333333;" points="133.6,3.1 133.7,3.1 133.7,3.3 133.6,3.3 133.6,3.1 "/>
<polygon style="fill-rule:evenodd;clip-rule:evenodd;fill:#333333;" points="134.3,3.1 134.9,3.1 134.9,3.4 134.3,3.4 134.3,3.1 "/>
<polygon style="fill-rule:evenodd;clip-rule:evenodd;fill:#333333;" points="135.9,2.2 136,2.2 136,3.5 135.9,3.5 135.9,2.2 "/>
<path style="fill-rule:evenodd;clip-rule:evenodd;fill:#333333;" d="M136,2.3c0.1,0,0.1,0.1,0.1,0.2c0,0.1-0.1,0.2-0.1,0.2
	c-0.1,0-0.1-0.1-0.1-0.2C135.9,2.4,136,2.3,136,2.3L136,2.3z"/>
<path style="fill-rule:evenodd;clip-rule:evenodd;fill:#333333;" d="M136,2.8c0.1,0,0.1,0.1,0.1,0.2s-0.1,0.2-0.1,0.2
	c-0.1,0-0.1-0.1-0.1-0.2S136,2.8,136,2.8L136,2.8z"/>
<polygon style="fill-rule:evenodd;clip-rule:evenodd;fill:#333333;" points="134,0 134,1.8 134.1,3.6 134,3.6 134,3.6 134,1.8 
	134,0 "/>
<polygon style="fill-rule:evenodd;clip-rule:evenodd;fill:#333333;" points="135.3,0.3 135.3,1.8 135.4,3.4 135.3,3.4 135.2,3.4 
	135.2,1.8 135.3,0.3 "/>
<polygon style="fill-rule:evenodd;clip-rule:evenodd;fill:#333333;" points="132,1.6 132.8,1.6 133.5,1.6 132.8,1.7 132,1.6 "/>
<polygon style="fill-rule:evenodd;clip-rule:evenodd;fill:#333333;" points="134.5,1.8 135.3,1.8 136,1.8 135.3,1.9 134.5,1.8 "/>
<polygon style="fill-rule:evenodd;clip-rule:evenodd;fill:#333333;" points="132.2,0.6 132.8,0.5 133.3,0.6 132.8,0.6 132.2,0.6 "/>
<polygon style="fill-rule:evenodd;clip-rule:evenodd;fill:#333333;" points="132.8,0.6 132.8,1.8 132.9,4.7 132.8,4.7 132.7,4.7 
	132.7,1.8 132.8,0.6 132.8,0.6 "/>
<polygon style="fill-rule:evenodd;clip-rule:evenodd;fill:#333333;" points="131.1,4.3 131.2,4.3 131.2,4.6 131.1,4.6 131.1,4.3 "/>
<polygon style="fill-rule:evenodd;clip-rule:evenodd;fill:#333333;" points="139.8,4.3 140,4.3 140,4.6 139.8,4.6 139.8,4.3 "/>
<polygon style="fill-rule:evenodd;clip-rule:evenodd;fill:#333333;" points="139.8,9.9 142.8,9.9 142.8,11.1 139.8,11.1 139.8,9.9 
	"/>
<polygon style="fill-rule:evenodd;clip-rule:evenodd;fill:#333333;" points="143.2,9.8 138.8,9.8 138.8,10.1 142.6,10.1 143.2,9.8 
	"/>
<polygon style="fill-rule:evenodd;clip-rule:evenodd;fill:#333333;" points="142.3,9.6 139.7,9.6 139.7,10.1 142.3,10.1 142.3,9.6 
	"/>
<polygon style="fill-rule:evenodd;clip-rule:evenodd;fill:#333333;" points="145,10.2 145.1,10.2 145.1,10.7 145,10.7 145,10.2 "/>
<polygon style="fill-rule:evenodd;clip-rule:evenodd;fill:#333333;" points="144.3,10.2 144.4,10.2 144.4,10.7 144.3,10.7 
	144.3,10.2 "/>
<polygon style="fill-rule:evenodd;clip-rule:evenodd;fill:#333333;" points="142.7,10.4 144.1,10.4 144.1,10.7 142.7,10.7 
	142.7,10.4 "/>
<polygon style="fill-rule:evenodd;clip-rule:evenodd;fill:#333333;" points="143.7,10.3 142.6,10.3 142.6,10.5 143.7,10.5 
	143.7,10.3 "/>
<polygon style="fill-rule:evenodd;clip-rule:evenodd;fill:#333333;" points="142.7,10.1 146,10.1 146,10.3 142.7,10.3 142.7,10.1 
	"/>
<path style="fill-rule:evenodd;clip-rule:evenodd;fill:#333333;" d="M146,10.1c0.2,0,0.4,0.2,0.4,0.4S146.2,11,146,11
	c-0.2,0-0.4-0.2-0.4-0.4S145.7,10.1,146,10.1L146,10.1z"/>
<polygon style="fill-rule:evenodd;clip-rule:evenodd;fill:#333333;" points="131.3,9.9 128.3,9.9 128.3,11.1 131.3,11.1 131.3,9.9 
	"/>
<polygon style="fill-rule:evenodd;clip-rule:evenodd;fill:#333333;" points="127.8,9.8 132.3,9.8 132.3,10.1 128.4,10.1 127.8,9.8 
	"/>
<polygon style="fill-rule:evenodd;clip-rule:evenodd;fill:#333333;" points="128.8,9.6 131.4,9.6 131.4,10.1 128.8,10.1 128.8,9.6 
	"/>
<polygon style="fill-rule:evenodd;clip-rule:evenodd;fill:#333333;" points="126,10.3 125.9,10.3 125.9,10.7 126,10.7 126,10.3 "/>
<polygon style="fill-rule:evenodd;clip-rule:evenodd;fill:#333333;" points="126.7,10.3 126.6,10.3 126.6,10.7 126.7,10.7 
	126.7,10.3 "/>
<polygon style="fill-rule:evenodd;clip-rule:evenodd;fill:#333333;" points="128.3,10.4 126.9,10.4 126.9,10.7 128.3,10.7 
	128.3,10.4 "/>
<polygon style="fill-rule:evenodd;clip-rule:evenodd;fill:#333333;" points="127.4,10.3 128.4,10.3 128.4,10.5 127.4,10.5 
	127.4,10.3 "/>
<polygon style="fill-rule:evenodd;clip-rule:evenodd;fill:#333333;" points="128.4,10.1 125,10.1 125,10.3 128.4,10.3 128.4,10.1 
	"/>
<path style="fill-rule:evenodd;clip-rule:evenodd;fill:#333333;" d="M125.1,10.1c-0.2,0-0.4,0.2-0.4,0.4s0.2,0.4,0.4,0.4
	c0.2,0,0.4-0.2,0.4-0.4S125.3,10.1,125.1,10.1L125.1,10.1z"/>
<polygon style="fill-rule:evenodd;clip-rule:evenodd;fill:#333333;" points="38.2,41.4 44.4,41.4 44.4,49 38.2,49 38.2,41.4 "/>
<polygon style="fill-rule:evenodd;clip-rule:evenodd;fill:#333333;" points="98.4,42.8 104.5,42.8 104.5,48.6 98.4,48.6 98.4,42.8 
	"/>
<polygon style="fill-rule:evenodd;clip-rule:evenodd;fill:#333333;" points="115,41.2 124.1,41.2 124.1,49.4 115,49.4 115,41.2 "/>
<polygon style="fill-rule:evenodd;clip-rule:evenodd;fill:#333333;" points="117.9,39.9 121.2,39.9 121.2,43.2 117.9,43.2 
	117.9,39.9 "/>
<polygon style="fill-rule:evenodd;clip-rule:evenodd;fill:#333333;" points="118.2,39.8 118.6,39.8 118.6,40.1 118.2,40.1 
	118.2,39.8 "/>
<polygon style="fill-rule:evenodd;clip-rule:evenodd;fill:#333333;" points="119.5,39.5 119.4,39.5 119.4,40.1 119.5,40.1 
	119.5,39.5 "/>
<polygon style="fill-rule:evenodd;clip-rule:evenodd;fill:#333333;" points="147.6,40.9 159.4,40.9 159.4,49.9 147.6,49.9 
	147.6,40.9 "/>
<polygon style="fill-rule:evenodd;clip-rule:evenodd;fill:#333333;" points="158,40.4 152.9,40.4 152.9,41.6 158,41.6 158,40.4 "/>
<polygon style="fill-rule:evenodd;clip-rule:evenodd;fill:#333333;" points="242.9,42.9 235.8,42.9 235.8,49.5 242.9,49.5 
	242.9,42.9 "/>
<polygon style="fill-rule:evenodd;clip-rule:evenodd;fill:#333333;" points="236.3,42.4 240.1,42.4 240.1,44.2 236.3,44.2 
	236.3,42.4 "/>
<polygon style="fill-rule:evenodd;clip-rule:evenodd;fill:#333333;" points="242.4,42.5 241.2,42.5 241.2,44.3 242.4,44.3 
	242.4,42.5 "/>
<polygon style="fill-rule:evenodd;clip-rule:evenodd;fill:#333333;" points="9.1,41 15.5,41 15.5,49.7 9.1,49.7 9.1,41 "/>
<polygon style="fill-rule:evenodd;clip-rule:evenodd;fill:#333333;" points="5.4,43.2 11.3,43.2 11.3,48.6 5.4,48.6 5.4,43.2 "/>
<polygon style="fill-rule:evenodd;clip-rule:evenodd;fill:#333333;" points="108.4,36.7 114.6,36.7 114.6,50.6 108.4,50.6 
	108.4,36.7 "/>
<polygon style="fill-rule:evenodd;clip-rule:evenodd;fill:#333333;" points="113.5,36.2 110,36.2 110,37.2 113.5,37.2 113.5,36.2 
	"/>
<polygon style="fill-rule:evenodd;clip-rule:evenodd;fill:#333333;" points="107.5,41.1 110.7,41.1 110.7,50.1 107.5,50.1 
	107.5,41.1 "/>
<polygon style="fill-rule:evenodd;clip-rule:evenodd;fill:#333333;" points="233.2,40.2 239.2,40.2 239.2,47.9 233.2,47.9 
	233.2,40.2 "/>
</svg>
